<?xml version="1.0" encoding="utf-8"?>
<!-- Generator: Adobe Illustrator 24.1.0, SVG Export Plug-In . SVG Version: 6.00 Build 0)  -->
<svg version="1.1" id="Layer_1" xmlns="http://www.w3.org/2000/svg" xmlns:xlink="http://www.w3.org/1999/xlink" x="0px" y="0px"
	 viewBox="0 0 794.1 276" style="enable-background:new 0 0 794.1 276;" xml:space="preserve">
<path d="M456.1,121.6c1.8-1.8,3.9-3,6.4-3c2.7,0,4.3,1.5,4.3,4.2c0,2.1-0.9,4.6-3.1,6.4c-1.8,2.1-4,3.1-6.4,3.1
	c-3,0-4.6-1.5-4.6-4.6C452.8,125.6,454,123.4,456.1,121.6 M105.3,197.3c-1.5,0.2-3,0.4-4.6,0.6c-0.8,0.1-1.6,0.2-2.4,0.3
	c-2.3,0.2-4.5,0.3-6.8,0.3c-6.4,0-14.9-0.9-25.9-2.7c-8.5,1.8-17.1,2.7-25,2.7h-2.1c-14.6,0-22.3-1.5-22.3-4.6c0-1.5,1.8-2.7,5.5-4
	c3.7-1.2,7.9-1.8,12.5-1.8c2.7,0,6.5,0.4,11.2,1.2c6,0.9,13.8,2.5,23.5,4.8c11.9-3,21-7.9,27.7-14.6c2.4-2.3,5.3-5.6,8.5-9.8
	c0.6-0.8,1.3-1.7,1.9-2.5l0.4-0.5c2.5-3.4,5.3-7.4,8.4-11.9c3.3-4.9,7-10.7,11-16.7c8.2-13.1,17.1-24.1,26.8-33.2
	c-7.9-13.4-20.4-20.1-37.8-20.4c-0.6,0-1.2-0.3-1.8-0.3c-18.9,0-36.2,7.6-51.8,22.2c-7.9,7.3-14.3,15.5-19.2,24.6c-1,2-1.9,4-2.7,6
	c-0.2,0.5-0.4,1.1-0.6,1.6c-0.6,1.7-1.2,3.3-1.7,4.9l-0.2,0.8c-0.5,1.8-0.9,3.5-1.1,5.2l-0.1,0.7c-0.3,1.9-0.4,3.7-0.4,5.5
	c0,1.4,0.1,2.8,0.3,4.1c0.1,0.4,0.2,0.8,0.3,1.3c0.2,0.8,0.4,1.6,0.7,2.4c0.2,0.4,0.4,0.8,0.5,1.2c0.3,0.7,0.7,1.4,1.2,2.1l0.7,1
	c0.6,0.8,1.3,1.6,2,2.3c3.6,3.6,8.8,5.5,14.9,5.5c10.7,0,21.6-5.8,33.2-17.1c11.3-11.6,17-22.5,17-32.9c0-4.3-1.2-7.3-3.3-9.8
	c-2.1-2.4-4.9-3.7-8.5-3.7c-4.3,0-6.1,0.6-6.1,2.1c0,0.3,0.3,0.6,0.9,0.6l0.9-0.3h0.9c2.7,0,4.3,1.2,4.3,3.7c0,1.8-0.6,3.7-2.1,4.9
	c-1.5,1.5-3,2.1-4.9,2.1c-3.4,0-5.2-1.8-5.2-5.5c0-2.5,1.2-4.6,3.3-6.4c2.1-1.8,4.9-2.7,8.2-2.7c4,0,7.3,1.2,9.7,4
	c2.8,2.7,4,6.4,4,10.7c0,11.3-6.1,22.5-17.7,34.1c-11.9,11.9-23.5,17.7-34.7,17.7c-1.7,0-3.3-0.1-4.9-0.4c-1-0.1-1.9-0.4-2.8-0.7
	c-0.4-0.1-0.9-0.2-1.3-0.4c-2.7-0.9-5.2-2.2-7.5-4c-1-0.6-1.8-1.4-2.6-2.1c-4.9-5.2-7.6-11.9-7.6-19.8c0-2.6,0.3-5,0.6-7.5
	c0.1-0.6,0.2-1.2,0.4-1.8c0.4-1.9,0.9-3.9,1.5-5.8c0.2-0.5,0.4-1.1,0.5-1.6c0.8-2.2,1.7-4.3,2.8-6.4l0.3-0.6c1.4-2.6,3-5.1,4.9-7.5
	c1-1.4,2.1-2.8,3.3-4.1l1.1-1.2c1.2-1.3,2.5-2.7,3.8-3.9l1.2-1.1c1.7-1.6,3.5-3.2,5.5-4.8c17-13.8,36.5-20.5,58.1-20.5h1.8
	c1.6,0,3.2,0.2,4.7,0.3h0.2c15,1.4,26.8,8,35,19.8c13.4-12.5,27.4-18.9,41.4-18.9c7,0,12.8,2.4,17,7c4.6,4.6,6.7,10.4,6.7,18
	c0,2.7-0.3,5.8-1.2,8.8c-0.6,3-1.2,4.6-1.8,4.6s-0.6,0-0.6-0.3l0.3-1.2c1.2-3.4,1.8-7.3,1.8-11.9c0-7-2.1-12.5-6.4-17.1
	c-4.2-4.3-10-6.4-17.1-6.4c-13.4,0-26.5,6.4-39,19.2c4.6,8.9,7,18.3,7,28.3c0,18.3-7,33.5-21,46.3c-1.8,1.6-3.7,3.1-5.6,4.5
	c-6.6,5-13.7,8.7-21.6,11c-2.9,0.8-5.9,1.4-9,2C106.3,197.1,105.8,197.2,105.3,197.3 M18.4,193.8c0,2.1,7.3,3,21.9,3
	c8.2,0,15.8-0.6,22.5-1.8c-8.8-1.2-16.1-1.8-22.2-2.4c-1.7-0.2-3.1-0.3-4.6-0.4c-2.8-0.2-5.3-0.2-7.5-0.2
	C21.7,192,18.4,192.6,18.4,193.8 M72,194.7c7,1.5,14.6,2.1,22.5,2.1c2.5,0,5-0.2,7.4-0.5l1-0.1c17.7-2.4,32.1-12.5,43.7-30.2
	c8.5-13.4,13.1-26.2,13.1-39.3c0-7-1.5-13.7-4.9-19.8c-7.3,8.5-14.3,19.2-20.1,32c-1.3,2.7-2.5,5.3-3.8,7.8
	c-0.6,1.2-1.2,2.3-1.8,3.4c-0.6,1.1-1.2,2.1-1.7,3.1c-3.8,6.8-7.7,12.6-11.6,17.1c-1.8,2.1-4,4.3-5.8,5.8
	C101.5,183.7,88.7,190.2,72,194.7 M281.3,142.3c-9.4,0-24.4,18-44.5,53.6c-3.3-0.3-5.2-0.3-6.1-0.3c-2.1,0-4.3,0-6.4,0.3l15.5-24.4
	c8.8-14,13.1-22.5,13.1-26.2c0-2.1-0.6-3-2.4-3c-2,0-5.3,2.7-9.8,8c-2.9,3.4-12.5,16.6-16.5,20.7c-5.7,5.9-11.3,8.8-16.1,8.8
	c-2.1,0-4-0.3-5.5-1.2c-3.3,4.5-6.2,8.3-9.5,11.1l-0.2,0.1l-0.1,0.1l-0.5,0.4c-0.9,0.8-1.7,1.5-2.5,2.1s-1.6,1.1-2.4,1.6l-0.9,0.5
	c-0.7,0.4-1.5,0.8-2.2,1.1c-0.5,0.2-0.9,0.3-1.4,0.5c-0.6,0.2-1.2,0.4-1.8,0.5c-1.1,0.2-2.2,0.4-3.2,0.4c-3.9,0-7.3-1.5-10-4.9
	c-2.7-3-4.3-7-4.3-11.6c0-10.4,6.7-20.1,20.1-29.6c6.2-4.4,11.5-7.2,16.1-8.7l0.9-0.3c0.7-0.2,1.4-0.4,2.1-0.5
	c1.4-0.3,2.7-0.5,4-0.5c5.8,0,8.8,3.1,8.8,9.4c0,7.6-4.3,16.8-12.2,27.4c1.2,0.9,2.7,1.2,4.6,1.2c2.7,0,6.4-1.6,10.4-4.3
	c5.4-3.6,12.3-13.4,12.3-13.4c10.4-13.4,17.1-20.4,20.7-20.4c2.1,0,4.3,1.2,5.8,3.1c1.5,2.1,2.4,4.6,2.4,7.6c0,4-2.7,10.1-7.6,17.4
	c7.9-10.7,13.7-18,18-21.9s7.9-6.1,11.6-6.1c3,0,5.5,1.2,7.3,3.6s3,5.5,3,8.8c0,4.6-3,11.3-9.1,20.4c-6.1,9.1-9.4,15.2-9.4,17.7
	c0,2.7,1.5,4,4.2,4c5.8,0,15.8-10.4,30.2-31.1c0.3-0.6,0.9-0.9,1.2-0.9c0.3,0,0.6,0,0.6,0.6c0,1.2-4.9,7.6-14.6,18.9
	c-7.6,9.4-14,14-18.3,14c-3,0-5.5-1.2-7.6-3.3c-2.1-2.5-3-5.2-3-8.5c0-3,0.6-5.8,1.8-8.2c1.2-2.4,4.6-7.6,9.7-15.2
	c5.2-7.9,7.9-12.8,7.9-14.9C285.6,143.9,284.4,142.3,281.3,142.3 M199,171c0-3,1.2-6.4,3.7-10.1c2.8-3.3,5.2-4.9,7.6-4.9
	c1.2,0,1.8,0.6,2.1,1.8c1.2-2.4,1.8-4.9,1.8-7.6c0-5.5-2.4-8.2-7.3-8.2c-0.9,0-2,0.2-3,0.5l-0.4,0.1c-3.2,1.1-6.9,3.5-10.7,7.3
	c-2.4,2.4-5.2,5.5-8.2,9.4c-8.5,11.3-13.1,21-13.1,28.9c0,4.6,2.4,6.7,6.7,6.7c1.1,0,2.2-0.2,3.3-0.4l0.6-0.2
	c0.9-0.3,1.9-0.6,2.8-1.1l0.7-0.3c0.8-0.4,1.7-0.9,2.6-1.5c0.4-0.3,0.8-0.5,1.2-0.8l0.2-0.2c1.6-1.2,3.3-2.7,5-4.5
	c2.3-2.5,4.6-5.3,7-8.4C199.9,175.5,199,173.4,199,171 M780.8,163c0.3,0,0.6,0,0.6,0.6c0,0.3-2.1,2.7-6.1,7.3
	c-4.9,5.5-9.7,8.2-14,8.2c-5.2,0-7.6-3-7.6-8.8c0-1.8,0.3-4,1.2-7c-4.3,3.6-7.6,7.3-10.4,11c-2.4,3.3-7,10.6-13.4,21.6
	c-3.7-0.3-5.5-0.3-6.1-0.3c-0.3,0-2.4,0-6.1,0.3l16.1-26.2c8.2-13.1,12.2-21.3,12.2-24.7c0-1.8-0.6-2.7-2.1-2.7
	c-2.8,0-7.2,4-13.4,12c-2,2.7-9.2,12.2-12.8,16.3c-5.4,6.1-11.6,9.2-16.5,9.2c-2.1,0-4-0.6-5.5-1.2c-1.4,2-2.8,3.8-4.2,5.5
	c-0.5,0.6-1,1.1-1.4,1.7c-0.4,0.4-0.8,0.9-1.2,1.3l-1,1.1c-4.4,4.4-8.7,7.1-12.9,8.2l-0.5,0.1c-1.2,0.3-2.3,0.4-3.5,0.4
	c-3.9,0-7.3-1.5-10-4.9c-2.7-3.3-4.3-7-4.3-11.6c0-2.1,0.4-4.2,0.9-6.2c-2,2.5-4.4,5.3-7.3,8.6c-7.9,9.4-14,14-18.6,14
	c-2.7,0-5.5-1.2-7.3-3.3c-2.1-2.5-3-5.2-3-8.5c0-3,0.6-5.8,1.8-8.2c1.2-2.4,4.6-7.6,9.8-15.2c5.2-7.9,7.9-12.8,7.9-15.2
	c0-2.4-1.5-4-4.3-4c-9.7,0-24.4,18-44.5,53.6c-3.4-0.3-5.5-0.3-6.1-0.3c-2.1,0-4.3,0-6.4,0.3l15.5-24.4c8.8-14,13.1-22.8,13.1-26.2
	c0-2.1-0.9-3-2.4-3c-2.8,0-8,4.9-15.5,14.9c-1.4,1.9-8,11.7-13.4,18.4c-1.7,2-3.7,4.7-5.8,7.2c-7.9,9.4-14,14-18.6,14
	c-3,0-5.5-1.2-7.6-3.3c-1.8-2.1-2.7-5.2-2.7-8.5c0-3.7,0.9-7.3,3-11.6c-3,4.6-6.1,8.5-8.5,11.6c-2.4,3.1-4.6,5.5-6.4,7
	c-3.7,3.4-7,4.9-10.4,4.9c-3.3,0-6.4-1.5-8.5-4.6c-2.4-2.7-3.7-6.7-3.7-11.3c0-3,0.5-6,1.6-8.8c-2,2.3-4.5,5-7.4,8.2
	c-10.4,11-18.9,16.4-26.2,16.4c-4.6,0-8.5-1.8-11.9-5.2c-3.4-3.6-4.9-7.9-4.9-12.8c0-1.8,0.3-3.6,0.8-5.4
	c-11.6,15.5-20.6,23.4-26.7,23.4c-3.1,0-5.8-0.9-7.9-3.3c-2.1-2.1-3-4.9-3-8.2c0-3.7,2.1-9.5,6.7-17.4l15.8-26.3
	c2.1,0.6,3.7,0.6,4.9,0.6c1.8,0,4.3,0,7.6-0.6l-22.5,36.9c-3,5.5-4.9,9.5-4.9,12.5c0,2.7,1.5,4.3,4.9,4.3c5.2,0,14.1-8.4,26.4-25.1
	c1.1-2.8,2.7-5.6,5-8.4c4.6-6.1,10.7-11,18.3-15.5c6.4-3.7,11.6-5.5,15.5-5.5c5.2,0,7.6,3.1,7.6,8.8c0,4.6-1.5,9.1-4.9,13.4
	c-3.1,4.6-6.1,7-9.1,7c-3.1,0-4.6-1.5-4.6-4.6c0-3.4,3-6.7,9.1-9.4c4.9-2.4,7.3-5.5,7.3-9.2c0-3-1.8-4.6-4.9-4.6
	c-5.5,0-12.5,5.5-20.4,16.5c-8.2,11-12.2,20.1-12.2,27.4c0,6.1,3.1,9.1,8.8,9.1c8.8,0,20.7-9.4,35.4-28.2c4.2-7,11.8-13.6,22.8-19.6
	c0.6-0.6,1.5-0.9,2.1-1.2c0.9-0.5,1.7-0.9,2.6-1.3c0.4-0.2,0.9-0.4,1.3-0.6c1-0.5,2-0.8,2.9-1.2c0.7-0.3,1.5-0.6,2.2-0.8
	c0.6-0.2,1.2-0.3,1.7-0.5c0.8-0.2,1.7-0.5,2.4-0.6c1.3-0.2,2.5-0.4,3.6-0.4c4.3,0,6.1,2.1,6.1,6.1c0,1.2-0.3,2.8-0.6,4.6l4.9-9.7
	c2.1,0.6,4,0.6,5.5,0.6c1.8,0,3.9,0,7-0.6l-18,28.9c-6.1,10.3-9.1,17.1-9.1,20.1s1.2,4.6,3.9,4.6c2.8,0,7-3.1,12.8-8.8
	c3.3-3.4,6.6-7.2,10-11.5c2.6-3.3,13.8-18.6,15.5-20.7c7.4-9.1,12.4-13.5,15.4-13.5c2.1,0,4,1.2,5.8,3.1c1.5,2.1,2.4,4.6,2.4,7.3
	c0,4.3-2.7,10-7.6,17.7c7.9-10.7,13.7-18,18-21.9c4.3-3.9,7.9-6.1,11.6-6.1c2.7,0,5.2,1.2,7.3,3.6c1.8,2.4,3.1,5.5,3.1,8.8
	c0,4.3-3.1,11.3-9.1,20.4c-6.4,9.1-9.5,15.2-9.5,17.7c0,2.7,1.5,4,4.3,4c5.2,0,14-8.6,26.3-25.6c3.1-6.5,8.9-12.7,17.6-18.8
	c2.7-1.9,5.2-3.5,7.6-4.9c0.5-0.3,1-0.7,1.5-0.9c1-0.5,1.8-0.9,2.7-1.3c0.7-0.3,1.4-0.6,2-0.9c1.2-0.5,2.4-0.9,3.5-1.2
	c0.5-0.2,1.1-0.3,1.6-0.4c1.4-0.3,2.8-0.5,4.1-0.5c5.8,0,8.5,3.1,8.5,9.1c0,7.6-3.9,17.1-11.9,27.7c1.2,0.6,2.8,1.2,4.6,1.2
	c3,0,6.4-1.5,10.4-4.3c2-1.4,4.3-3.8,5.9-5.5c1.6-1.7,6.6-7.9,6.6-7.9c10-13.7,17.1-20.4,20.7-20.4c5.2,0,7.9,3.3,7.9,10.4
	c0,4.9-2.7,11.6-8.2,20.1c3.4-3.9,6.7-7.3,9.7-9.7c2.7-5.8,5.8-10.7,9.4-14.6c4-3.9,7.3-6.1,10.1-6.1c2.1,0,3.3,0.9,3.3,2.7
	c0,3-4.9,7.6-14,13.7c-1.5,0.9-3.6,2.1-6.7,4l-1.2,0.9c-0.9,3-1.2,5.5-1.2,7.6c0,5.5,2.1,8.2,6.1,8.2c5.2,0,11-4.3,17-12.8
	C779.6,163.6,780.5,163,780.8,163 M545.7,172.8c9.1-12.5,13.7-21,13.7-25.6c0-3.3-1.2-4.9-4.3-4.9c-1,0-2,0.2-3.1,0.5l-1.1,0.4
	c-0.8,0.3-1.5,0.7-2.3,1.1c-1,0.6-2.1,1.2-3.2,2l-0.9,0.7c-3.9,3-8.2,7.4-13,13.2c-10.1,11.9-14.9,21.3-14.9,28.7
	c0,4.3,2.1,6.4,5.8,6.4c0.5,0,1-0.1,1.6-0.3l1-0.4l0.5-0.2c2.6-1.3,5.9-4.2,10-8.5c1.8-2,3.7-4.3,5.8-6.9
	C542.5,177,544,175,545.7,172.8 M693.4,171c0-3,1.2-6.4,3.7-10.1c2.8-3.3,5.2-4.9,7.6-4.9c1.2,0,1.8,0.6,2.1,1.8
	c1.2-2.4,1.8-4.9,1.8-7.6c0-5.5-2.4-8.2-7.3-8.2c-0.9,0-2,0.2-3,0.5l-0.4,0.1c-3.2,1.1-6.8,3.5-10.6,7.3c-2.4,2.4-5.2,5.5-8.2,9.4
	c-8.5,11.3-13.1,21-13.1,28.9c0,4.6,2.4,6.7,6.7,6.7c1.1,0,2.2-0.2,3.3-0.4l0.5-0.2c1.1-0.3,2.1-0.7,3.2-1.2h0.1
	c2.4-1.2,4.9-3,7.5-5.5l0.9-0.9c0.5-0.5,1.1-1.1,1.6-1.6l0.1-0.1c1-1.1,2-2.2,3-3.5l0,0c1-1.3,2.1-2.7,3.1-4.2
	C694.3,175.5,693.4,173.4,693.4,171 M386.2,90.6v0.3v0.3c-6.4,11.9-9.4,31.7-10,59.4c-0.6,22.6-1.2,37.2-2.4,44.2
	c-1.2,7-4.3,13.4-8.8,19.8c-0.9,1.2-1.5,1.8-1.5,1.8l0.6,0.6c1.8,0,5.6-2.7,11.9-8.2c8.6-7.9,20.4-24.7,35.1-50.3
	c12.2-21.2,24.6-42.8,35.1-55.5c17.9-20,34.5-28.8,52.5-28.8c10.6,0,19.7,2.9,26.6,9c6.9,6.1,11.1,17.6,9.6,32.3
	c-0.1,0.9,0.7,1.3,0.8,0.3c0.5-4.1,2.1-23.1-9.4-33.1c-8.1-7.1-16.2-9.8-27.8-9.8c-12.6,0-25.6,4-37,12.3
	c-13.3,9.8-18.6,16.7-23,21.9c-7.4,8.7-14.1,18.9-20.4,30.4c-12.9,24.4-21,39.3-24.3,44.8c-2.9,5.2-6.5,10.4-10.6,15.5
	c-7.1,9.4-12,14-14.1,13.7l0.3-0.9c7.3-7.6,11.9-16.4,14.9-26.5s4.6-22.9,4.6-38.4c0-9.4-0.3-20.7-0.9-33.5
	c-0.3-5.2-0.6-8.8-0.6-11.3c0-11.9,3.4-19.2,9.8-22.2c3.4-1.5,4.9-3,4.9-4.3c0-1.2-0.6-1.5-1.5-1.5c-2.1,0-6.1,3.6-12.2,11.3
	c-6.4,7.6-11.9,16.4-17.7,26.2c-20.4,33.8-36.8,59.7-43.8,68.5c-23.4,29.8-40,39.3-64.6,39.3c-6.5,0-13.1-0.9-18.7-4.1
	c-9.1-5.3-6.9-7.1-8.2-6.1c-0.8,0.6,3,4.4,7.2,6.9c3.5,2.1,10.1,4.5,19.7,4.6c16.2,0.1,30.9-3.8,45.4-16.3
	c13.9-12,30.4-33.8,45.6-60.6C374,106.1,384.6,90.6,386.2,90.6"/>
</svg>
