<?xml version="1.0" encoding="utf-8"?>
<!-- Generator: Adobe Illustrator 24.1.0, SVG Export Plug-In . SVG Version: 6.00 Build 0)  -->
<svg version="1.1" id="Layer_1" xmlns="http://www.w3.org/2000/svg" xmlns:xlink="http://www.w3.org/1999/xlink" x="0px" y="0px"
	 viewBox="0 0 794.1 276" style="enable-background:new 0 0 794.1 276;" xml:space="preserve">
<style type="text/css">
	.st0{fill:url(#SVGID_1_);}
	.st1{fill:url(#SVGID_2_);}
</style>
<g>
	<linearGradient id="SVGID_1_" gradientUnits="userSpaceOnUse" x1="261.6928" y1="137.7756" x2="532.4071" y2="137.7756">
		<stop  offset="0" style="stop-color:#E5A688"/>
		<stop  offset="1.483936e-02" style="stop-color:#E7AB8D"/>
		<stop  offset="8.210380e-02" style="stop-color:#EEBFA1"/>
		<stop  offset="0.1507" style="stop-color:#F2CAAC"/>
		<stop  offset="0.2221" style="stop-color:#F3CEB0"/>
		<stop  offset="0.2709" style="stop-color:#EEC6A8"/>
		<stop  offset="0.3465" style="stop-color:#DFB093"/>
		<stop  offset="0.4395" style="stop-color:#C68D71"/>
		<stop  offset="0.5454" style="stop-color:#A45B42"/>
		<stop  offset="0.5521" style="stop-color:#A2583F"/>
		<stop  offset="0.7464" style="stop-color:#99553F"/>
		<stop  offset="0.8531" style="stop-color:#C07352"/>
		<stop  offset="0.9548" style="stop-color:#9C5E43"/>
	</linearGradient>
	<path class="st0" d="M397,64.4c-40.4,0-73.3,32.9-73.3,73.3c0,40.4,32.9,73.3,73.3,73.3s73.3-32.9,73.3-73.3
		C470.4,97.3,437.5,64.4,397,64.4z M397,208.9c-39.2,0-71.2-31.9-71.2-71.2c0-39.2,31.9-71.2,71.2-71.2c39.2,0,71.2,31.9,71.2,71.2
		C468.2,177,436.3,208.9,397,208.9z M397,71.3c-36.6,0-66.4,29.8-66.4,66.4c0,36.6,29.8,66.4,66.4,66.4s66.4-29.8,66.4-66.4
		C463.5,101.1,433.7,71.3,397,71.3z M397,201.1c-34.9,0-63.3-28.4-63.3-63.3c0-34.9,28.4-63.3,63.3-63.3s63.3,28.4,63.3,63.3
		C460.3,172.7,432,201.1,397,201.1z M477.4,178.2l28.4,11.7l5-12.1L482.5,166c2.3-7,3.8-14.3,4.3-21.7h30.7v-13.1h-30.7
		c-0.5-7.4-2-14.7-4.3-21.7l28.4-11.8l-5-12.1l-28.4,11.7c-3.3-6.6-7.4-12.7-12.3-18.4l21.7-21.7l-9.3-9.3l-21.7,21.7
		c-5.6-4.9-11.8-9-18.4-12.3L449.2,29l-12.1-5l-11.8,28.4c-7-2.3-14.3-3.8-21.7-4.3V17.3h-13.1v30.7c-7.4,0.5-14.7,2-21.7,4.3
		L357,24l-12.1,5l11.7,28.4c-6.6,3.3-12.7,7.5-18.4,12.3L316.5,48l-9.3,9.3L329,79c-4.9,5.6-9,11.8-12.3,18.4l-28.4-11.7l-5,12.1
		l28.4,11.8c-2.3,7-3.8,14.3-4.3,21.7h-30.7v13.1h30.7c0.5,7.4,2,14.7,4.3,21.7l-28.4,11.8l5,12.1l28.4-11.7
		c3.3,6.6,7.4,12.7,12.3,18.4l-21.7,21.7l9.3,9.3l21.7-21.7c5.6,4.9,11.8,9,18.4,12.3l-11.7,28.4l12.1,5l11.8-28.4
		c7,2.3,14.3,3.8,21.7,4.3v30.7h13.1v-30.7c7.4-0.5,14.7-2,21.7-4.3l11.8,28.4l12.1-5l-11.7-28.4c6.6-3.3,12.7-7.4,18.4-12.3
		l21.7,21.7l9.3-9.3l-21.7-21.7C470,190.9,474.1,184.8,477.4,178.2z M482.4,218.3l-4.8,4.8L456,201.5l-1.1,1
		c-6.1,5.4-12.8,10-20.1,13.5l-1.3,0.6l11.7,28.2l-6.3,2.6l-11.7-28.2l-1.4,0.5c-7.7,2.7-15.6,4.3-23.7,4.7l-1.5,0.1v30.5h-6.8
		v-30.5l-1.5-0.1c-8.1-0.5-16.1-2-23.7-4.7l-1.4-0.5l-11.7,28.2l-6.3-2.6l11.7-28.2l-1.3-0.6c-7.3-3.5-14-8-20.1-13.5l-1.1-1
		l-21.6,21.6l-4.8-4.8l21.6-21.6l-1-1.1c-5.4-6.1-10-12.8-13.5-20.1l-0.6-1.3L290,185.8l-2.6-6.3l28.2-11.7l-0.5-1.4
		c-2.7-7.7-4.3-15.6-4.7-23.7l-0.1-1.5h-30.5v-6.8h30.5l0.1-1.5c0.5-8.1,2-16.1,4.7-23.7l0.5-1.4l-28.2-11.7l2.6-6.3l28.2,11.7
		l0.6-1.3c3.5-7.3,8-14,13.5-20.1l1-1.1l-21.6-21.6l4.8-4.8L338.1,74l1.1-1c6.1-5.4,12.8-10,20.1-13.5l1.3-0.6L349,30.7l6.3-2.6
		L367,56.3l1.4-0.5c7.7-2.7,15.6-4.3,23.7-4.7l1.5-0.1V20.5h6.8V51l1.5,0.1c8.1,0.5,16.1,2,23.7,4.7l1.4,0.5l11.7-28.2l6.3,2.6
		l-11.7,28.2l1.3,0.6c7.3,3.5,14,8,20.1,13.5l1.1,1l21.6-21.6l4.8,4.8l-21.6,21.6l1,1.1c5.4,6.1,10,12.8,13.5,20.1l0.6,1.3
		l28.2-11.7l2.6,6.3l-28.2,11.7l0.5,1.4c2.7,7.7,4.3,15.6,4.7,23.7l0.1,1.5h30.5v6.8h-30.5l-0.1,1.5c-0.5,8.1-2,16.1-4.7,23.7
		l-0.5,1.4l28.2,11.7l-2.6,6.3l-28.2-11.7l-0.6,1.3c-3.5,7.3-8,14-13.5,20.1l-1,1.1L482.4,218.3z M413.9,229.4l8.7,43.7l2.7-0.5
		l-8.7-43.7L413.9,229.4z M380.2,46.1l-8.7-43.7L368.8,3l8.7,43.7L380.2,46.1z M447.7,216l24.8,37.1l2.3-1.5l-24.8-37.1L447.7,216z
		 M346.4,59.6l-24.8-37.1l-2.3,1.5l24.8,37.1L346.4,59.6z M320.3,84.9l-37.1-24.8l-1.5,2.3l37.1,24.8L320.3,84.9z M473.8,190.7
		l37.1,24.8l1.5-2.3l-37.1-24.8L473.8,190.7z M488.2,157.3l43.7,8.7l0.5-2.7l-43.7-8.7L488.2,157.3z M305.9,118.3l-43.7-8.7
		l-0.5,2.7l43.7,8.7L305.9,118.3z M488.7,120.9l43.7-8.7l-0.5-2.7l-43.7,8.7L488.7,120.9z M305.4,154.6l-43.7,8.7l0.5,2.7l43.7-8.7
		L305.4,154.6z M318.8,188.4l-37.1,24.8l1.5,2.3l37.1-24.8L318.8,188.4z M475.3,87.2l37.1-24.8l-1.5-2.3l-37.1,24.8L475.3,87.2z
		 M449.9,61.1L474.7,24l-2.3-1.5l-24.8,37.1L449.9,61.1z M344.2,214.5l-24.8,37.1l2.3,1.5l24.8-37.1L344.2,214.5z M377.5,228.9
		l-8.7,43.7l2.7,0.5l8.7-43.7L377.5,228.9z M425.3,3l-2.7-0.5l-8.7,43.7l2.7,0.5L425.3,3z"/>
	<linearGradient id="SVGID_2_" gradientUnits="userSpaceOnUse" x1="344.8706" y1="142.6037" x2="444.4318" y2="142.6037">
		<stop  offset="0" style="stop-color:#E5A688"/>
		<stop  offset="1.483936e-02" style="stop-color:#E7AB8D"/>
		<stop  offset="8.210380e-02" style="stop-color:#EEBFA1"/>
		<stop  offset="0.1507" style="stop-color:#F2CAAC"/>
		<stop  offset="0.2221" style="stop-color:#F3CEB0"/>
		<stop  offset="0.2709" style="stop-color:#EEC6A8"/>
		<stop  offset="0.3465" style="stop-color:#DFB093"/>
		<stop  offset="0.4395" style="stop-color:#C68D71"/>
		<stop  offset="0.5454" style="stop-color:#A45B42"/>
		<stop  offset="0.5521" style="stop-color:#A2583F"/>
		<stop  offset="0.7464" style="stop-color:#99553F"/>
		<stop  offset="0.8531" style="stop-color:#C07352"/>
		<stop  offset="0.9548" style="stop-color:#9C5E43"/>
	</linearGradient>
	<path class="st1" d="M444.4,147.6c0,10.6-7.3,20.8-22.6,20.8c-12.1,0-20.4-8-20.4-17.8c0-10.3,7.2-15.9,13.8-16.2
		c4.6-0.3,6.4,0.8,8.2,1.8c1.1,0.6,2.1,1.4,2.9,2.4c0.8,1,1.4,2,1.8,3.1c0.4,1.1,0.6,2.2,0.6,3.4c0,1.2-0.2,2.3-0.7,3.3
		c-0.8,1.7-1.8,2.9-3.2,3.7c-1.4,0.8-2.8,1.1-4.2,1c-1.4-0.1-2.6-0.5-3.6-1.4c-1-0.8-1.4-2-1.4-3.5c0-0.8,0.3-1,0.9-0.8
		c1,0.4,3.8,2.9,5.9-0.5c0.5-0.7,0.5-2.2,0.4-3.1c-0.1-0.9-0.3-1.8-0.8-2.7c-0.5-0.9-1.1-1.7-1.9-2.4c-1.3-0.9-2.6-1.5-4-1.5
		c-1.4-0.1-2.8,0.2-4.1,0.7c-9.3,3.9-10,24.8,7.6,26.8c9.3,1.1,16.6-8.2,16.6-15c0-9.5-6.7-14.4-14.8-19.3
		c-6.1-3.6-13.9-8.3-13.9-16.7c0-9.6,7.2-14.5,18.5-14.5c4.6,0,7.2,1,9.8,1c1.7,0,2.4-0.9,3.1-0.9c0.6,0,0.8,0.3,0.8,0.7
		c0,0.6-1,1.9-1,3.2c0,2.5,1.3,5.2,1.3,9.3c0,0.7-0.5,1.3-0.9,1.3c-0.5,0-0.7-0.4-1-1.4c-1.5-5-7-10.6-12.7-10.6
		c-5.4,0-9.4,4.1-9.4,10.3c0,7.3,9.5,10.1,17.6,16.2C439.3,132.6,444.4,138.3,444.4,147.6z M404.3,180.9c-0.3,0.2-0.5,0.3-0.8,0.5
		c-0.3,0.3-0.7,0.5-1.2,0.7c-4.7,2.5-10.1,3.9-15.8,3.9c-13.8,0.1-27.7-6.6-33.6-20.9c-2.2-7-6.8-7-7.4-7.8
		c-0.7-0.3-1.2-2.2,1.2-1.6c6.8,1.6,8.3-4.9,8.2-7.7c-0.1-8.4,0.8-44.6,0.8-44.6c0-3.1,0.2-3.9,0.8-3.9c0.5,0,32.8,49.7,32.8,49.7
		c1.8,2.2,2.9,4.1,3.3,4.1c0.4,0,0.4-1.6,0.4-2.6v-41.2c0-3.5-0.3-6-1.2-7.5c-1.2-1.9-4.1-1.6-4.1-2.2c0-0.5,0.5-0.6,1.2-0.6
		c1.3,0,3.8,0.4,5.8,0.4c1.9,0,4.1-0.4,5.6-0.4c0.8,0,1.5,0,1.5,0.5c0,0.8-2.1,0.6-3.5,1.5c-1.1,0.8-1.4,4.3-1.4,7.7l-0.1,53
		c0.2,5.8-0.4,6.7-1,6.7c-0.9,0-1.1,0.2-3.6-3.7l-33-47.9c0.3,2.2,0.5,31.6,0.5,32.1c-0.6,18.2,5.7,33,25.6,34.6
		c16.4,1.3,18.9-8.7,18.8-11.2c-0.1-2.5-2-3.3-3-3.5c-0.3,0-0.5-0.1-0.6-0.2c-0.2-0.3,0-0.6,0.6-1c1.8-1.2,5.5-1.3,7.3,1.5
		C410.9,173,409.7,177.3,404.3,180.9z"/>
</g>
</svg>
