<?xml version="1.0" encoding="utf-8"?>
<!-- Generator: Adobe Illustrator 24.1.0, SVG Export Plug-In . SVG Version: 6.00 Build 0)  -->
<svg version="1.1" id="Layer_1" xmlns="http://www.w3.org/2000/svg" xmlns:xlink="http://www.w3.org/1999/xlink" x="0px" y="0px"
	 viewBox="0 0 794.1 276" style="enable-background:new 0 0 794.1 276;" xml:space="preserve">
<style type="text/css">
	.st0{fill:url(#SVGID_2_);}
	.st1{clip-path:url(#SVGID_4_);fill:url(#SVGID_6_);}
	.st2{fill:#1D1D1B;}
	.st3{clip-path:url(#SVGID_8_);fill:#1D1D1B;}
</style>
<g>
	<g>
		<g>
			
				<linearGradient id="SVGID_2_" gradientUnits="userSpaceOnUse" x1="268.3828" y1="238.263" x2="524.5583" y2="238.263" gradientTransform="matrix(1 0 0 -1 0 296.7244)">
				<stop  offset="0" style="stop-color:#E8AD8C"/>
				<stop  offset="2.420000e-02" style="stop-color:#EBB595"/>
				<stop  offset="8.840000e-02" style="stop-color:#F1C7A9"/>
				<stop  offset="0.1539" style="stop-color:#F5D2B4"/>
				<stop  offset="0.2221" style="stop-color:#F6D5B8"/>
				<stop  offset="0.2681" style="stop-color:#F1CDB0"/>
				<stop  offset="0.3395" style="stop-color:#E4B79A"/>
				<stop  offset="0.4274" style="stop-color:#CE9476"/>
				<stop  offset="0.5273" style="stop-color:#B06345"/>
				<stop  offset="0.5521" style="stop-color:#A85638"/>
				<stop  offset="0.7464" style="stop-color:#9F5439"/>
				<stop  offset="0.8531" style="stop-color:#C5724B"/>
				<stop  offset="0.9548" style="stop-color:#A35D3D"/>
				<stop  offset="1" style="stop-color:#A35D3D"/>
			</linearGradient>
			<path id="SVGID_1_" class="st0" d="M391.4,83.7c-0.1-1.7-1.7-2.6-4.5-2.6c-2.6,0-4,1-4,2.8c0,0.3,0.2,23.9,0.2,23.9l29,0.1v-11
				c0-5,4.1-9.2,9.2-9.2c5,0,9.2,4.1,9.2,9.2v11l45.2,0.1V96.5c0-5,4.1-9.2,9.2-9.2c5,0,9.2,4.1,9.2,9.2V108l30.5,0.1
				c0,0,0.1-23.3,0.1-24.2c0-1.8-1.5-2.8-4.3-2.7c-3,0.1-2.9,1.6-3.5,2.4c-0.8-0.6-1.2-2.2-3.7-2.1c-2.4,0.2-3.8,0.9-4,2.5h0
				c-0.2-1.6-0.9-2.7-4.4-2.5c-2.5,0.1-2.8,1.4-3.4,2.2c-0.7-0.8-1.5-1.8-3.4-2c-2.9-0.4-4.4,0.8-4.6,2.3h0
				c-0.2-1.6-1.8-2.5-4.4-2.5c-2.4,0-3.8,0.9-4,2.5h0c-0.2-1.6-1.8-2.5-4.5-2.5c-2.4,0-3.8,0.9-4,2.5h0c-0.2-1.6-1.8-2.5-4.4-2.5
				c-2.4,0-3.8,0.9-4,2.5h0c-0.2-1.6-1.8-2.5-4.4-2.5c-2.4,0-3.8,0.9-4,2.5h0c-0.2-1.6-1.8-2.5-4.4-2.5c-2.4,0-3.8,0.9-4,2.5h0
				c-0.2-1.6-1.8-2.5-4.4-2.5c-2.4,0-3.8,0.9-4,2.5h0c-0.2-1.6-1.8-2.5-4.4-2.5c-2.4,0-3.8,0.9-4,2.5h0c-0.2-1.6-1.8-2.5-4.4-2.5
				c-2.4,0-3.8,0.9-4,2.5h0c-0.2-1.6-1.8-2.5-4.4-2.5c-2.4,0-3.8,0.9-4,2.5h0c-0.2-1.6-1.8-2.5-4.4-2.5c-2.4,0-3.8,0.9-4,2.5h0
				c-0.2-1.6-1.8-2.5-4.5-2.5c-2.4,0-3.8,0.9-4,2.5l0,0c0-0.1,0-0.1,0-0.2c0-1.8-1.6-2.8-4.5-2.8C392.9,81.1,391.5,82.1,391.4,83.7
				 M417.1,62.8c0-2.4,2-4.4,4.4-4.4c2.4,0,4.4,2,4.4,4.4s-2,4.4-4.4,4.4C419.1,67.2,417.1,65.2,417.1,62.8 M484.2,67.1
				c-2.4-0.5-3.9-2.8-3.4-5.2c0.5-2.4,2.8-3.9,5.2-3.4c2.4,0.5,3.9,2.8,3.4,5.2c-0.4,2.1-2.3,3.5-4.3,3.5
				C484.8,67.2,484.5,67.1,484.2,67.1 M389.8,67v8.2c1.4,0.9,1.5,0.9,1.7,0.9h0.4c0.6-0.8,1.8-1.3,3.5-1.3c1.9,0,3.3,0.5,4,1.3h1
				c0.6-0.8,1.8-1.3,3.5-1.3c1.9,0,3.3,0.5,4,1.3h1c0.6-0.8,1.8-1.3,3.5-1.3c1.9,0,3.3,0.5,4,1.3h1c0.6-0.8,1.8-1.3,3.5-1.3
				c1.9,0,3.3,0.5,4,1.3h1c0.6-0.8,1.8-1.3,3.5-1.3c1.9,0,3.3,0.5,4,1.3h1c0.6-0.8,1.8-1.3,3.5-1.3c1.9,0,3.3,0.5,4,1.3h1
				c0.6-0.8,1.8-1.3,3.5-1.3c1.9,0,3.3,0.5,4,1.3h1c0.6-0.8,1.8-1.3,3.5-1.3c1.9,0,3.3,0.5,4,1.3h1c0.6-0.8,1.8-1.3,3.5-1.3
				c1.9,0,3.3,0.5,4,1.3h1c0.6-0.8,1.8-1.3,3.5-1.3c1.9,0,3.3,0.5,4,1.3h1c0.6-0.8,1.8-1.3,3.5-1.3c1.9,0,3.3,0.5,4,1.3h1
				c0.6-0.8,1.8-1.3,3.5-1.3c1.9,0,3.3,0.5,4,1.3h1c0.6-0.8,1.8-1.3,3.5-1.3c1.8,0,3.1,0.4,3.8,1.1c0.7-0.7,1.8-1.1,3.4-1.1
				c1.9,0,3.3,0.5,4,1.3h1.1c0.6-0.8,1.8-1.3,3.5-1.3c1.8,0,3.1,0.4,3.8,1.1l-0.1-8.2l-31.5-16.8l-30.3,16.1l-32.7-16.2L389.8,67z
				 M377.9,35.4c1.9,0.7,3.3,3.2,3.3,6.1v10.6h-7v1.5h10.7v-0.2v-1.3V41.6c0-3.5-1.9-6.3-4.3-6.3C380.3,35.3,378.3,35.3,377.9,35.4
				 M461.8,9.3c-0.1,0.1-0.2,0.1-0.2,0.2l-8.8,11.4l-8.8-11.4c-0.1-0.1-0.2-0.2-0.3-0.2c-0.1-0.1-0.2-0.1-0.2-0.1h-0.1l-0.2,0.3
				l0.1,0.3l2.8,13.6l-15.6-2.5L430,21l-0.1,0.2c0.1,0.1,0.1,0.2,0.2,0.3c0.1,0.1,0.1,0.2,0.2,0.2l12.8,7.9l-12.8,7.9
				c-0.1,0.1-0.1,0.1-0.2,0.2c-0.1,0.1-0.1,0.2-0.2,0.3V38l0.4,0.2l15.6-2.5L443,49.5l0.1,0.3l0.3,0.1c0.1,0,0.2-0.1,0.3-0.2
				c0.1-0.1,0.2-0.1,0.2-0.2l8.8-11.4l8.8,11.4c0.1,0.1,0.1,0.2,0.2,0.2c0.1,0.1,0.2,0.1,0.3,0.2h0.1l0.2-0.4l-2.8-13.9l15.2,2.4
				l0.3,0.1l0.3-0.1l0.1-0.2c-0.1-0.1-0.1-0.2-0.2-0.2c-0.1-0.1-0.1-0.2-0.2-0.2l-12.7-7.9l12.7-7.9c0.1-0.1,0.2-0.1,0.2-0.2
				c0.1-0.1,0.1-0.2,0.2-0.3v-0.1l-0.4-0.2l-0.3,0.1l-15.2,2.5l2.8-13.6l0.1-0.3l-0.1-0.3L462,9.3C462,9.3,461.8,9.3,461.8,9.3
				 M350.6,40.4c0-2.9,2.5-5.2,5.6-5.2c3.1,0,5.6,2.3,5.6,5.2v12.2h-11.2L350.6,40.4L350.6,40.4z M335.5,30.3h8.9v38h-11.2
				c-5.8-5.9-13.8-9.7-22.8-9.7c-9.2,0-17.4,3.9-23.1,10.1l-18.5,0.5l-0.4,38h24.7V89.4c0-9.1,7.4-16.5,16.5-16.5h1.6
				c9.1,0,16.5,7.4,16.5,16.5v17.8h40.1V67.9V58V30.3h29.3L367.7,8.8L335.5,30.3z"/>
		</g>
		<g>
			<defs>
				<path id="SVGID_3_" d="M391.4,83.7c-0.1-1.7-1.7-2.6-4.5-2.6c-2.6,0-4,1-4,2.8c0,0.3,0.2,23.9,0.2,23.9l29,0.1v-11
					c0-5,4.1-9.2,9.2-9.2c5,0,9.2,4.1,9.2,9.2v11l45.2,0.1V96.5c0-5,4.1-9.2,9.2-9.2c5,0,9.2,4.1,9.2,9.2V108l30.5,0.1
					c0,0,0.1-23.3,0.1-24.2c0-1.8-1.5-2.8-4.3-2.7c-3,0.1-2.9,1.6-3.5,2.4c-0.8-0.6-1.2-2.2-3.7-2.1c-2.4,0.2-3.8,0.9-4,2.5h0
					c-0.2-1.6-0.9-2.7-4.4-2.5c-2.5,0.1-2.8,1.4-3.4,2.2c-0.7-0.8-1.5-1.8-3.4-2c-2.9-0.4-4.4,0.8-4.6,2.3h0
					c-0.2-1.6-1.8-2.5-4.4-2.5c-2.4,0-3.8,0.9-4,2.5h0c-0.2-1.6-1.8-2.5-4.5-2.5c-2.4,0-3.8,0.9-4,2.5h0c-0.2-1.6-1.8-2.5-4.4-2.5
					c-2.4,0-3.8,0.9-4,2.5h0c-0.2-1.6-1.8-2.5-4.4-2.5c-2.4,0-3.8,0.9-4,2.5h0c-0.2-1.6-1.8-2.5-4.4-2.5c-2.4,0-3.8,0.9-4,2.5h0
					c-0.2-1.6-1.8-2.5-4.4-2.5c-2.4,0-3.8,0.9-4,2.5h0c-0.2-1.6-1.8-2.5-4.4-2.5c-2.4,0-3.8,0.9-4,2.5h0c-0.2-1.6-1.8-2.5-4.4-2.5
					c-2.4,0-3.8,0.9-4,2.5h0c-0.2-1.6-1.8-2.5-4.4-2.5c-2.4,0-3.8,0.9-4,2.5h0c-0.2-1.6-1.8-2.5-4.4-2.5c-2.4,0-3.8,0.9-4,2.5h0
					c-0.2-1.6-1.8-2.5-4.5-2.5c-2.4,0-3.8,0.9-4,2.5l0,0c0-0.1,0-0.1,0-0.2c0-1.8-1.6-2.8-4.5-2.8C392.9,81.1,391.5,82.1,391.4,83.7
					 M417.1,62.8c0-2.4,2-4.4,4.4-4.4c2.4,0,4.4,2,4.4,4.4s-2,4.4-4.4,4.4C419.1,67.2,417.1,65.2,417.1,62.8 M484.2,67.1
					c-2.4-0.5-3.9-2.8-3.4-5.2c0.5-2.4,2.8-3.9,5.2-3.4c2.4,0.5,3.9,2.8,3.4,5.2c-0.4,2.1-2.3,3.5-4.3,3.5
					C484.8,67.2,484.5,67.1,484.2,67.1 M389.8,67v8.2c1.4,0.9,1.5,0.9,1.7,0.9h0.4c0.6-0.8,1.8-1.3,3.5-1.3c1.9,0,3.3,0.5,4,1.3h1
					c0.6-0.8,1.8-1.3,3.5-1.3c1.9,0,3.3,0.5,4,1.3h1c0.6-0.8,1.8-1.3,3.5-1.3c1.9,0,3.3,0.5,4,1.3h1c0.6-0.8,1.8-1.3,3.5-1.3
					c1.9,0,3.3,0.5,4,1.3h1c0.6-0.8,1.8-1.3,3.5-1.3c1.9,0,3.3,0.5,4,1.3h1c0.6-0.8,1.8-1.3,3.5-1.3c1.9,0,3.3,0.5,4,1.3h1
					c0.6-0.8,1.8-1.3,3.5-1.3c1.9,0,3.3,0.5,4,1.3h1c0.6-0.8,1.8-1.3,3.5-1.3c1.9,0,3.3,0.5,4,1.3h1c0.6-0.8,1.8-1.3,3.5-1.3
					c1.9,0,3.3,0.5,4,1.3h1c0.6-0.8,1.8-1.3,3.5-1.3c1.9,0,3.3,0.5,4,1.3h1c0.6-0.8,1.8-1.3,3.5-1.3c1.9,0,3.3,0.5,4,1.3h1
					c0.6-0.8,1.8-1.3,3.5-1.3c1.9,0,3.3,0.5,4,1.3h1c0.6-0.8,1.8-1.3,3.5-1.3c1.8,0,3.1,0.4,3.8,1.1c0.7-0.7,1.8-1.1,3.4-1.1
					c1.9,0,3.3,0.5,4,1.3h1.1c0.6-0.8,1.8-1.3,3.5-1.3c1.8,0,3.1,0.4,3.8,1.1l-0.1-8.2l-31.5-16.8l-30.3,16.1l-32.7-16.2L389.8,67z
					 M377.9,35.4c1.9,0.7,3.3,3.2,3.3,6.1v10.6h-7v1.5h10.7v-0.2v-1.3V41.6c0-3.5-1.9-6.3-4.3-6.3C380.3,35.3,378.3,35.3,377.9,35.4
					 M461.8,9.3c-0.1,0.1-0.2,0.1-0.2,0.2l-8.8,11.4l-8.8-11.4c-0.1-0.1-0.2-0.2-0.3-0.2c-0.1-0.1-0.2-0.1-0.2-0.1h-0.1l-0.2,0.3
					l0.1,0.3l2.8,13.6l-15.6-2.5L430,21l-0.1,0.2c0.1,0.1,0.1,0.2,0.2,0.3c0.1,0.1,0.1,0.2,0.2,0.2l12.8,7.9l-12.8,7.9
					c-0.1,0.1-0.1,0.1-0.2,0.2c-0.1,0.1-0.1,0.2-0.2,0.3V38l0.4,0.2l15.6-2.5L443,49.5l0.1,0.3l0.3,0.1c0.1,0,0.2-0.1,0.3-0.2
					c0.1-0.1,0.2-0.1,0.2-0.2l8.8-11.4l8.8,11.4c0.1,0.1,0.1,0.2,0.2,0.2c0.1,0.1,0.2,0.1,0.3,0.2h0.1l0.2-0.4l-2.8-13.9l15.2,2.4
					l0.3,0.1l0.3-0.1l0.1-0.2c-0.1-0.1-0.1-0.2-0.2-0.2c-0.1-0.1-0.1-0.2-0.2-0.2l-12.7-7.9l12.7-7.9c0.1-0.1,0.2-0.1,0.2-0.2
					c0.1-0.1,0.1-0.2,0.2-0.3v-0.1l-0.4-0.2l-0.3,0.1l-15.2,2.5l2.8-13.6l0.1-0.3l-0.1-0.3L462,9.3C462,9.3,461.8,9.3,461.8,9.3
					 M350.6,40.4c0-2.9,2.5-5.2,5.6-5.2c3.1,0,5.6,2.3,5.6,5.2v12.2h-11.2L350.6,40.4L350.6,40.4z M335.5,30.3h8.9v38h-11.2
					c-5.8-5.9-13.8-9.7-22.8-9.7c-9.2,0-17.4,3.9-23.1,10.1l-18.5,0.5l-0.4,38h24.7V89.4c0-9.1,7.4-16.5,16.5-16.5h1.6
					c9.1,0,16.5,7.4,16.5,16.5v17.8h40.1V67.9V58V30.3h29.3L367.7,8.8L335.5,30.3z"/>
			</defs>
			<clipPath id="SVGID_4_">
				<use xlink:href="#SVGID_3_"  style="overflow:visible;"/>
			</clipPath>
			
				<linearGradient id="SVGID_6_" gradientUnits="userSpaceOnUse" x1="268.3828" y1="238.2757" x2="524.5583" y2="238.2757" gradientTransform="matrix(1 0 0 -1 0 296.7244)">
				<stop  offset="0" style="stop-color:#E8AD8C"/>
				<stop  offset="2.420000e-02" style="stop-color:#EBB595"/>
				<stop  offset="8.840000e-02" style="stop-color:#F1C7A9"/>
				<stop  offset="0.1539" style="stop-color:#F5D2B4"/>
				<stop  offset="0.2221" style="stop-color:#F6D5B8"/>
				<stop  offset="0.2681" style="stop-color:#F1CDB0"/>
				<stop  offset="0.3395" style="stop-color:#E4B79A"/>
				<stop  offset="0.4274" style="stop-color:#CE9476"/>
				<stop  offset="0.5273" style="stop-color:#B06345"/>
				<stop  offset="0.5521" style="stop-color:#A85638"/>
				<stop  offset="0.7464" style="stop-color:#9F5439"/>
				<stop  offset="0.8531" style="stop-color:#C5724B"/>
				<stop  offset="0.9548" style="stop-color:#A35D3D"/>
				<stop  offset="1" style="stop-color:#A35D3D"/>
			</linearGradient>
			<rect x="268.4" y="8.8" class="st1" width="256.2" height="99.2"/>
		</g>
	</g>
	<g>
		<g>
			<path id="SVGID_5_" class="st2" d="M297,233.1l1.5,0.6c1.3,0.5,1.8,1.7,1.9,4.1v13.1c0,2.6-0.5,3.3-1.9,3.9l-1.4,0.6h18l1.5-5.2
				l-0.8-0.2l-0.1,0.2c-1.5,2.4-4,3.6-7.6,3.6c-2.1,0-2.3-0.1-2.3-3.2v-6.1h2l0.6,0c1.9-0.1,3.6,1,4,2.6l0.1,0.3h0.8v-7.1h-0.8
				l-0.1,0.3c-0.1,0.5-0.3,0.8-0.5,1.1c-0.8,0.8-2.1,1.3-3.5,1.3l-2.6,0v-8.1h2.4c3.3,0,5.2,1,6.3,3.4l0.1,0.2l0.7-0.1l-0.4-5.1
				L297,233.1L297,233.1z M387.8,233.1l1.5,0.6c1.3,0.5,1.8,1.7,1.9,4.1v13.1c0,2.5-0.4,3.2-1.9,3.9l-1.4,0.6h18l1.5-5.2l-0.8-0.2
				l-0.1,0.2c-1.5,2.4-4,3.6-7.6,3.6c-2.1,0-2.3-0.1-2.3-3.2v-6.1h2l0.6,0c1.9-0.1,3.6,1,4,2.6l0.1,0.3h0.8v-7.1h-0.8l-0.1,0.3
				c-0.1,0.5-0.3,0.8-0.5,1.1c-0.8,0.8-2.1,1.3-3.5,1.3l-2.6,0v-8.1h2.4c3.3-0.1,5.2,1,6.3,3.4l0.1,0.2l0.7-0.1l-0.4-5.1
				L387.8,233.1L387.8,233.1z M431.2,233.1l0.8,0.6c1.5,1,1.6,1.2,1.6,3.4V251c0,2.7-0.2,3.1-1.5,3.9l-0.9,0.6h10l-0.8-0.6
				c-1-0.8-1.3-1.5-1.3-3.6v-14.3c0.1-1.7,0.1-1.8,1.4-3.1l0.7-0.7C441.2,233.1,431.2,233.1,431.2,233.1z M272.3,250.5v-16l1.8,0
				c2,0,3.8,0.4,5.3,1.1c2.6,1.5,4.3,4.8,4.3,8.6c0,5.9-3.5,9.8-9,9.8C272.7,254,272.3,253.7,272.3,250.5 M272.5,233.1h-8.3l1,0.6
				c1.4,0.8,1.7,1.5,1.7,4.5v12.4c-0.1,2.8-0.4,3.4-2,4.3l-1.2,0.6h7.5l4.6,0.1c4.4,0,8.1-1.1,10.2-3.1c2.2-2.1,3.5-5.1,3.5-8.3
				c0-4.2-2.2-8-5.5-9.4c-2.3-1-5.2-1.6-8.6-1.6C274.6,233,273.7,233,272.5,233.1 M361.7,250.5v-16l1.8,0c2,0,3.9,0.4,5.3,1.1
				c2.6,1.5,4.3,4.8,4.3,8.6c0,5.9-3.5,9.8-9,9.8C362.1,254,361.7,253.7,361.7,250.5 M361.8,233.1h-8.3l1,0.6
				c1.4,0.8,1.7,1.5,1.7,4.5v12.4c-0.1,2.8-0.4,3.4-2,4.3l-1.2,0.6h7.5l4.6,0.1c4.4,0,8.1-1.1,10.2-3.1c2.2-2.1,3.5-5.1,3.5-8.3
				c0-4.2-2.2-8-5.5-9.4c-2.3-1-5.2-1.6-8.6-1.6C364,233,363.1,233,361.8,233.1 M326.4,238.9c0,1.4,0.4,2.5,1.3,3.6
				c0.9,1.1,2.6,2,5.9,3.3c4,1.5,5.3,2.6,5.3,4.5c0,2.1-1.8,3.7-4.4,3.7c-3.4,0-6.2-2.2-7.5-6l-0.1-0.2h-0.9l0.2,5l0.1,0.1
				c1.3,1.5,5.6,2.9,8.7,2.9c5.4,0,9.2-3,9.2-7.2c0-1.6-0.6-3.1-1.7-4.3c-1.1-1.2-3.1-2.3-6-3.2c-4.1-1.4-4.8-2.3-4.8-4.1
				c0-1.9,1.4-3.2,3.4-3.2c2.7,0,5.7,2.1,6.6,4.7l0.1,0.2l0.9-0.1l-0.3-6h-0.5l0,0c-0.5,0.6-0.8,0.8-1.1,0.8c-0.2,0-0.3-0.1-0.9-0.3
				c-2.2-0.8-3.7-1.2-5.4-1.2C329.8,232,326.4,234.9,326.4,238.9 M459,248.6c0-2.3,0.7-4,2-5c4.5,1.4,6.2,3.1,6.2,6
				c0,2.5-1.6,4.3-3.9,4.3C460.7,254,459,251.9,459,248.6 M459.3,235.8c0-1.9,1.1-3.2,2.9-3.2c1.9,0,3.3,1.5,3.3,3.7
				c0,1.7-0.7,3.2-1.8,3.9C460.5,239.1,459.3,237.9,459.3,235.8 M454.7,237.3c0,1.8,0.9,3.6,2.3,4.6l0,0c0.7,0.4,1.2,0.7,2,1
				c-0.9,0.4-1.4,0.6-2,0.9c-2.2,1.1-3.4,3-3.4,5.3c0,1.5,0.6,2.9,1.5,3.9c1.6,1.7,4.5,2.7,7.5,2.7c5.4,0,9.3-3.1,9.3-7.5
				c0-1.6-0.5-3-1.5-4.2c-0.9-1.1-2.2-1.9-4.9-3c2.8-1,4.4-2.8,4.4-5.1c0-3-3-5-7.3-5C458,230.9,454.7,233.5,454.7,237.3
				 M488.8,248.6c0-2.3,0.7-4,2-5c4.5,1.4,6.2,3.1,6.2,6c0,2.5-1.6,4.3-3.9,4.3C490.5,254,488.8,251.9,488.8,248.6 M489.1,235.8
				c0-1.9,1.1-3.2,2.9-3.2c1.9,0,3.3,1.5,3.3,3.7c0,1.7-0.7,3.2-1.8,3.9C490.3,239.1,489.1,237.9,489.1,235.8 M484.5,237.3
				c0,1.8,0.9,3.6,2.3,4.6l0,0c0.7,0.4,1.2,0.7,2.1,1c-0.9,0.4-1.4,0.6-2,0.9c-2.2,1.1-3.4,3-3.4,5.3c0,1.5,0.6,2.9,1.5,3.9
				c1.7,1.7,4.5,2.7,7.5,2.7c5.4,0,9.3-3.1,9.3-7.5c0-1.6-0.5-3-1.5-4.2c-0.9-1.1-2.2-1.9-4.9-3c2.8-1,4.4-2.8,4.4-5.1
				c0-3-3-5-7.3-5C487.8,230.9,484.5,233.5,484.5,237.3 M518.5,248.6c0-2.3,0.7-4,2-5c4.5,1.4,6.2,3.1,6.2,6c0,2.5-1.6,4.3-3.9,4.3
				C520.1,254,518.5,251.9,518.5,248.6 M518.7,235.8c0-1.9,1.1-3.2,2.9-3.2c1.9,0,3.3,1.5,3.3,3.7c0,1.7-0.7,3.2-1.8,3.9
				C519.9,239.1,518.7,237.9,518.7,235.8 M514.2,237.3c0,1.8,0.9,3.6,2.3,4.6l0,0c0.7,0.4,1.2,0.7,2,1c-0.9,0.4-1.4,0.6-2,0.9
				c-2.2,1.1-3.4,3-3.4,5.3c0,1.5,0.6,2.9,1.5,3.9c1.7,1.7,4.5,2.7,7.5,2.7c5.4,0,9.3-3.1,9.3-7.5c0-1.6-0.5-3-1.5-4.2
				c-0.9-1.1-2.2-1.9-4.9-3c2.8-1,4.4-2.8,4.4-5.1c0-3-3-5-7.3-5C517.4,230.9,514.2,233.5,514.2,237.3 M110.6,149.2h-7.9h-0.3h-7.9
				h-2l0.9,0.7c3,2.2,3.3,2.9,3.1,7.7v31.7c0,3.5-0.6,4.7-3.2,6.7l-0.9,0.7h2h7.9h0.3h7.9h2l-0.9-0.7c-2.7-2-3.2-3.1-3.2-6.7v-31.7
				c-0.1-4.9,0.2-5.6,3.1-7.7l0.9-0.7C112.6,149.2,110.6,149.2,110.6,149.2z M591.7,149.2h-7.9h-0.3h-7.9h-2l0.9,0.7
				c3,2.2,3.3,2.9,3.1,7.7v31.7c0,3.5-0.6,4.7-3.2,6.7l-0.9,0.7h2h7.9h0.3h7.9h2l-0.9-0.7c-2.7-2-3.2-3.1-3.2-6.7v-31.7
				c-0.1-4.9,0.2-5.6,3.1-7.7l0.9-0.7C593.7,149.2,591.7,149.2,591.7,149.2z M731.7,152.3c0.9,0,2-0.1,3-0.1
				c3.3,0.1,5.8,0.8,7.3,2.2c2.1,1.8,3.4,4.8,3.4,8.1c0,3.4-1.3,6.4-3.4,8.1c-1.8,1.4-4,1.8-9.4,1.8h-1V152.3z M734.4,149.2h-17h-2
				l0.9,0.7c3.6,2.6,3.8,3,3.9,7.4v31.2c0,3.5-0.9,6-3.9,7.4l-1.5,0.7h2l18.3,0.1h1.2l-1.8-1.2c-2.6-2.1-2.7-3.7-2.8-8.5v-11.7h0.3
				c1.7,0.1,2.4,0.8,5.2,4.5l6.6,8.5c0.4,0.5,4.2,4.7,4.8,5.3c2.5,2.2,6.5,3.5,10.6,3.5c0.4,0,0.8,0,1.2,0c0.3,0,0.5,0,0.8,0
				c1.8,0,3.2-0.2,6.2-0.8l1-0.2l-0.9-0.5c-4-2.2-6.4-4.4-13.8-12.8l-7.3-8.9c6.8-1.8,10.6-6.1,10.6-12.1c0-4-2.1-7.8-5.4-9.9
				c-3-1.9-6.2-2.4-15.3-2.4C736.3,149.2,734.4,149.2,734.4,149.2z M155.3,149.2h-2h-27h-2l2.2,0.7c3.3,1.1,4.6,3.3,4.6,8.1v26.9
				c0.2,7.4-0.7,9.5-4.9,11l-2,0.7h2h35.8l3.4-13.2h-2c-3.2,5.3-10.3,8.9-17.1,9.1c-3.2-0.1-4-1.3-4-5.4l0.1-2.9v-10.7h1.9h2h0.1
				c5.1,0.1,9.2,1.3,11.2,5.1h0.7l-0.1-14.9h-0.8c-1.5,4-5.3,5-11.1,5h-1.4h-2.5v-15.8h3.8c6.8,0.1,11.6,1.7,14.6,6.6h2l-1-10.5
				C162,149.1,158.5,149.3,155.3,149.2 M388.3,149.2h-2h-27h-2l2.2,0.7c3.3,1.1,4.6,3.3,4.6,8.1v26.9c0.2,7.4-0.7,9.5-4.9,11l-2,0.7
				h2h35.8l3.4-13.2h-2c-3.2,5.3-10.3,8.9-17.1,9.1c-3.2-0.1-4-1.3-4-5.4l0.1-2.9v-10.7h1.9h2h0.1c5.1,0.1,9.2,1.3,11.2,5.1h0.7
				l-0.1-14.9h-0.8c-1.5,4-5.3,5-11.1,5h-1.4h-2.5v-15.8h3.8c6.8,0.1,11.6,1.7,14.6,6.6h2l-1-10.5
				C395.1,149.1,391.6,149.3,388.3,149.2 M499.4,149.2h-2h-27h-2l2.2,0.7c3.3,1.1,4.6,3.3,4.6,8.1v26.9c0.2,7.4-0.7,9.5-4.9,11
				l-2,0.7h2h35.8l3.4-13.2h-2c-3.2,5.3-10.3,8.9-17.1,9.1c-3.2-0.1-4-1.3-4-5.4l0.1-2.9v-10.7h1.9h2h0.1c5.1,0.1,9.2,1.3,11.2,5.1
				h0.7l-0.1-14.9h-0.8c-1.5,4-5.3,5-11.1,5h-1.4h-2.5v-15.8h3.8c6.8,0.1,11.6,1.7,14.6,6.6h2l-1-10.5
				C506.2,149.1,502.7,149.3,499.4,149.2 M696.8,149.2h-2h-27h-2l2.2,0.7c3.3,1.1,4.6,3.3,4.7,8.1v26.9c0.2,7.4-0.7,9.5-4.9,11
				l-2,0.7h2h35.8l3.4-13.2h-2c-3.2,5.3-10.3,8.9-17.1,9.1c-3.2-0.1-4-1.3-4-5.4l0.1-2.9v-10.7h1.9h2h0.1c5.1,0.1,9.2,1.3,11.2,5.1
				h0.7l-0.1-14.9h-0.8c-1.5,4-5.3,5-11.1,5h-1.4h-2.5v-15.8h3.8c6.8,0.1,11.6,1.7,14.6,6.6h2l-1-10.5
				C703.6,149.1,700,149.3,696.8,149.2 M75.6,149.1h-9.8h-2l1.1,0.7c2.5,1.6,3.5,4.1,3.6,9.3v21.1l-26.1-31.1h-2H28.6h-2l-0.1,0.7
				c0.8,0.1,3.8,2.3,5.5,4.1v33.3c-0.1,4.8-1.3,7-4.8,8.7l-1.4,0.7h2h16.3c-1.9-0.9-3.4-2.4-4.2-4.4c-0.5-1.1-0.7-2.6-0.8-5v-26.3
				L67,196.5l0.1,0.2h2h4.6h2v-37.3c0.1-4.8,0.8-7.2,3.3-9.1l1.3-1.1L75.6,149.1L75.6,149.1z M456.4,149.1h-9.8h-2l1.1,0.7
				c2.5,1.6,3.5,4.1,3.6,9.3v21.1l-26.1-31.1h-2h-11.8h-2l-0.1,0.7c0.8,0.1,3.8,2.3,5.5,4.1v33.3c-0.1,4.8-1.4,7-4.8,8.7l-1.4,0.7h2
				H425c-1.9-0.9-3.4-2.4-4.2-4.4c-0.5-1.1-0.7-2.6-0.8-5v-26.3l27.8,35.6l0.1,0.2h2h4.6h2v-37.3c0.1-4.8,0.8-7.2,3.3-9.1l1.2-1.1
				L456.4,149.1L456.4,149.1z M654.4,149.1h-9.8h-2l1.1,0.7c2.5,1.6,3.5,4.1,3.6,9.3v21.1l-26.2-31.1h-2h-11.8h-2l-0.1,0.7
				c0.8,0.1,3.8,2.3,5.5,4.1v33.3c-0.1,4.8-1.4,7-4.8,8.7l-1.4,0.7h2h16.3c-1.9-0.9-3.4-2.4-4.2-4.4c-0.5-1.1-0.7-2.6-0.8-5v-26.3
				l27.8,35.6l0.1,0.2h2h4.6h2v-37.3c0.1-4.8,0.8-7.2,3.3-9.1l1.2-1.1L654.4,149.1L654.4,149.1z M171.5,158.5l2.3,0.8
				c4.1-5.9,8.2-5.9,15-5.9h0.9v33.3c0,4.9-1.2,7.9-3.8,9.2l-1.5,0.7h2h9.7h8.5h2l-1.5-0.7c-2.6-1.3-3.8-4.3-3.8-9.2l0-33.3h2.7h2
				c0.3,0,1.4,0,1.7,0c2.5,0.1,5.2,0.4,6.1,1.3c0.8,0.8,0.8,2,0.9,4.4h1.9l3.6-9.9l-31.8-0.1h-2l-4.3,0.1c-3.4,0.1-6.5-0.9-6.5-0.9
				L171.5,158.5z M516.3,158.5l2.3,0.8c4.1-5.9,8.2-5.9,15-5.9h0.9v33.3c0,4.9-1.2,7.9-3.8,9.2l-1.5,0.7h2h9.7h8.5h2l-1.5-0.7
				c-2.6-1.3-3.8-4.3-3.8-9.2l0-33.3h2.7h2c0.3,0,1.4,0,1.6,0c2.5,0.1,5.2,0.4,6.1,1.3c0.8,0.8,0.8,2,0.9,4.4h1.9l3.6-9.9l-31.8-0.1
				h-2l-4.3,0.1c-3.4,0.1-6.4-0.9-6.4-0.9L516.3,158.5z M236,172.8c0-11.7,6.5-21.2,14.6-21.2c8.1,0,14.6,9.5,14.6,21.2
				c0,11.7-6.5,21.2-14.6,21.2C242.5,194.1,236,184.6,236,172.8 M222.9,173.1c0,14,12.4,25.3,27.7,25.3s27.7-11.3,27.7-25.3
				c0-14-12.4-25.3-27.7-25.3S222.9,159.2,222.9,173.1 M327.4,147.7c-9.5,0-15.8,5.3-15.8,13.1c0,6.4,4.4,10.7,15.5,15.1l0.9,0.4
				c3.9,1.5,4,1.6,5.3,2.4c3.3,2.1,4.9,4.6,4.9,7.7c0,4.6-3.7,8.5-8.7,8.5c-9.4-0.6-14.5-7.8-16.8-12.6h-1.6l0.1,9.9l0.1,0.1
				c0.7,0.6,1.3,1,2.4,1.6c5.6,3.1,11.2,4.2,16.5,4.1c5.8-0.2,10.2-1.4,13.4-4.2c3.3-2.8,5.3-7.1,5.3-11.2c0-2.7-0.8-5.1-2.3-7.3
				c-1.7-2.5-4.8-4.5-9.7-6.4c-10-4-10.3-4.1-12.2-5.8c-1.3-1.1-2.2-3.1-2.2-4.9c0-3.8,3-6.7,7.1-7.3c7-0.9,12,3.7,13.3,7.6h2.3
				l-0.1-9l-2.1-0.1l-0.1,0.2c-0.3,0.5-0.7,1.3-2,0.8c-0.3-0.1-0.6-0.2-1-0.4c-3.2-1.5-6.9-2.3-10.5-2.3L327.4,147.7L327.4,147.7z"
				/>
		</g>
		<g>
			<defs>
				<path id="SVGID_7_" d="M297,233.1l1.5,0.6c1.3,0.5,1.8,1.7,1.9,4.1v13.1c0,2.6-0.5,3.3-1.9,3.9l-1.4,0.6h18l1.5-5.2l-0.8-0.2
					l-0.1,0.2c-1.5,2.4-4,3.6-7.6,3.6c-2.1,0-2.3-0.1-2.3-3.2v-6.1h2l0.6,0c1.9-0.1,3.6,1,4,2.6l0.1,0.3h0.8v-7.1h-0.8l-0.1,0.3
					c-0.1,0.5-0.3,0.8-0.5,1.1c-0.8,0.8-2.1,1.3-3.5,1.3l-2.6,0v-8.1h2.4c3.3,0,5.2,1,6.3,3.4l0.1,0.2l0.7-0.1l-0.4-5.1L297,233.1
					L297,233.1z M387.8,233.1l1.5,0.6c1.3,0.5,1.8,1.7,1.9,4.1v13.1c0,2.5-0.4,3.2-1.9,3.9l-1.4,0.6h18l1.5-5.2l-0.8-0.2l-0.1,0.2
					c-1.5,2.4-4,3.6-7.6,3.6c-2.1,0-2.3-0.1-2.3-3.2v-6.1h2l0.6,0c1.9-0.1,3.6,1,4,2.6l0.1,0.3h0.8v-7.1h-0.8l-0.1,0.3
					c-0.1,0.5-0.3,0.8-0.5,1.1c-0.8,0.8-2.1,1.3-3.5,1.3l-2.6,0v-8.1h2.4c3.3-0.1,5.2,1,6.3,3.4l0.1,0.2l0.7-0.1l-0.4-5.1
					L387.8,233.1L387.8,233.1z M431.2,233.1l0.8,0.6c1.5,1,1.6,1.2,1.6,3.4V251c0,2.7-0.2,3.1-1.5,3.9l-0.9,0.6h10l-0.8-0.6
					c-1-0.8-1.3-1.5-1.3-3.6v-14.3c0.1-1.7,0.1-1.8,1.4-3.1l0.7-0.7C441.2,233.1,431.2,233.1,431.2,233.1z M272.3,250.5v-16l1.8,0
					c2,0,3.8,0.4,5.3,1.1c2.6,1.5,4.3,4.8,4.3,8.6c0,5.9-3.5,9.8-9,9.8C272.7,254,272.3,253.7,272.3,250.5 M272.5,233.1h-8.3l1,0.6
					c1.4,0.8,1.7,1.5,1.7,4.5v12.4c-0.1,2.8-0.4,3.4-2,4.3l-1.2,0.6h7.5l4.6,0.1c4.4,0,8.1-1.1,10.2-3.1c2.2-2.1,3.5-5.1,3.5-8.3
					c0-4.2-2.2-8-5.5-9.4c-2.3-1-5.2-1.6-8.6-1.6C274.6,233,273.7,233,272.5,233.1 M361.7,250.5v-16l1.8,0c2,0,3.9,0.4,5.3,1.1
					c2.6,1.5,4.3,4.8,4.3,8.6c0,5.9-3.5,9.8-9,9.8C362.1,254,361.7,253.7,361.7,250.5 M361.8,233.1h-8.3l1,0.6
					c1.4,0.8,1.7,1.5,1.7,4.5v12.4c-0.1,2.8-0.4,3.4-2,4.3l-1.2,0.6h7.5l4.6,0.1c4.4,0,8.1-1.1,10.2-3.1c2.2-2.1,3.5-5.1,3.5-8.3
					c0-4.2-2.2-8-5.5-9.4c-2.3-1-5.2-1.6-8.6-1.6C364,233,363.1,233,361.8,233.1 M326.4,238.9c0,1.4,0.4,2.5,1.3,3.6
					c0.9,1.1,2.6,2,5.9,3.3c4,1.5,5.3,2.6,5.3,4.5c0,2.1-1.8,3.7-4.4,3.7c-3.4,0-6.2-2.2-7.5-6l-0.1-0.2h-0.9l0.2,5l0.1,0.1
					c1.3,1.5,5.6,2.9,8.7,2.9c5.4,0,9.2-3,9.2-7.2c0-1.6-0.6-3.1-1.7-4.3c-1.1-1.2-3.1-2.3-6-3.2c-4.1-1.4-4.8-2.3-4.8-4.1
					c0-1.9,1.4-3.2,3.4-3.2c2.7,0,5.7,2.1,6.6,4.7l0.1,0.2l0.9-0.1l-0.3-6h-0.5l0,0c-0.5,0.6-0.8,0.8-1.1,0.8
					c-0.2,0-0.3-0.1-0.9-0.3c-2.2-0.8-3.7-1.2-5.4-1.2C329.8,232,326.4,234.9,326.4,238.9 M459,248.6c0-2.3,0.7-4,2-5
					c4.5,1.4,6.2,3.1,6.2,6c0,2.5-1.6,4.3-3.9,4.3C460.7,254,459,251.9,459,248.6 M459.3,235.8c0-1.9,1.1-3.2,2.9-3.2
					c1.9,0,3.3,1.5,3.3,3.7c0,1.7-0.7,3.2-1.8,3.9C460.5,239.1,459.3,237.9,459.3,235.8 M454.7,237.3c0,1.8,0.9,3.6,2.3,4.6l0,0
					c0.7,0.4,1.2,0.7,2,1c-0.9,0.4-1.4,0.6-2,0.9c-2.2,1.1-3.4,3-3.4,5.3c0,1.5,0.6,2.9,1.5,3.9c1.6,1.7,4.5,2.7,7.5,2.7
					c5.4,0,9.3-3.1,9.3-7.5c0-1.6-0.5-3-1.5-4.2c-0.9-1.1-2.2-1.9-4.9-3c2.8-1,4.4-2.8,4.4-5.1c0-3-3-5-7.3-5
					C458,230.9,454.7,233.5,454.7,237.3 M488.8,248.6c0-2.3,0.7-4,2-5c4.5,1.4,6.2,3.1,6.2,6c0,2.5-1.6,4.3-3.9,4.3
					C490.5,254,488.8,251.9,488.8,248.6 M489.1,235.8c0-1.9,1.1-3.2,2.9-3.2c1.9,0,3.3,1.5,3.3,3.7c0,1.7-0.7,3.2-1.8,3.9
					C490.3,239.1,489.1,237.9,489.1,235.8 M484.5,237.3c0,1.8,0.9,3.6,2.3,4.6l0,0c0.7,0.4,1.2,0.7,2.1,1c-0.9,0.4-1.4,0.6-2,0.9
					c-2.2,1.1-3.4,3-3.4,5.3c0,1.5,0.6,2.9,1.5,3.9c1.7,1.7,4.5,2.7,7.5,2.7c5.4,0,9.3-3.1,9.3-7.5c0-1.6-0.5-3-1.5-4.2
					c-0.9-1.1-2.2-1.9-4.9-3c2.8-1,4.4-2.8,4.4-5.1c0-3-3-5-7.3-5C487.8,230.9,484.5,233.5,484.5,237.3 M518.5,248.6
					c0-2.3,0.7-4,2-5c4.5,1.4,6.2,3.1,6.2,6c0,2.5-1.6,4.3-3.9,4.3C520.1,254,518.5,251.9,518.5,248.6 M518.7,235.8
					c0-1.9,1.1-3.2,2.9-3.2c1.9,0,3.3,1.5,3.3,3.7c0,1.7-0.7,3.2-1.8,3.9C519.9,239.1,518.7,237.9,518.7,235.8 M514.2,237.3
					c0,1.8,0.9,3.6,2.3,4.6l0,0c0.7,0.4,1.2,0.7,2,1c-0.9,0.4-1.4,0.6-2,0.9c-2.2,1.1-3.4,3-3.4,5.3c0,1.5,0.6,2.9,1.5,3.9
					c1.7,1.7,4.5,2.7,7.5,2.7c5.4,0,9.3-3.1,9.3-7.5c0-1.6-0.5-3-1.5-4.2c-0.9-1.1-2.2-1.9-4.9-3c2.8-1,4.4-2.8,4.4-5.1
					c0-3-3-5-7.3-5C517.4,230.9,514.2,233.5,514.2,237.3 M110.6,149.2h-7.9h-0.3h-7.9h-2l0.9,0.7c3,2.2,3.3,2.9,3.1,7.7v31.7
					c0,3.5-0.6,4.7-3.2,6.7l-0.9,0.7h2h7.9h0.3h7.9h2l-0.9-0.7c-2.7-2-3.2-3.1-3.2-6.7v-31.7c-0.1-4.9,0.2-5.6,3.1-7.7l0.9-0.7
					C112.6,149.2,110.6,149.2,110.6,149.2z M591.7,149.2h-7.9h-0.3h-7.9h-2l0.9,0.7c3,2.2,3.3,2.9,3.1,7.7v31.7
					c0,3.5-0.6,4.7-3.2,6.7l-0.9,0.7h2h7.9h0.3h7.9h2l-0.9-0.7c-2.7-2-3.2-3.1-3.2-6.7v-31.7c-0.1-4.9,0.2-5.6,3.1-7.7l0.9-0.7
					C593.7,149.2,591.7,149.2,591.7,149.2z M731.7,152.3c0.9,0,2-0.1,3-0.1c3.3,0.1,5.8,0.8,7.3,2.2c2.1,1.8,3.4,4.8,3.4,8.1
					c0,3.4-1.3,6.4-3.4,8.1c-1.8,1.4-4,1.8-9.4,1.8h-1V152.3z M734.4,149.2h-17h-2l0.9,0.7c3.6,2.6,3.8,3,3.9,7.4v31.2
					c0,3.5-0.9,6-3.9,7.4l-1.5,0.7h2l18.3,0.1h1.2l-1.8-1.2c-2.6-2.1-2.7-3.7-2.8-8.5v-11.7h0.3c1.7,0.1,2.4,0.8,5.2,4.5l6.6,8.5
					c0.4,0.5,4.2,4.7,4.8,5.3c2.5,2.2,6.5,3.5,10.6,3.5c0.4,0,0.8,0,1.2,0c0.3,0,0.5,0,0.8,0c1.8,0,3.2-0.2,6.2-0.8l1-0.2l-0.9-0.5
					c-4-2.2-6.4-4.4-13.8-12.8l-7.3-8.9c6.8-1.8,10.6-6.1,10.6-12.1c0-4-2.1-7.8-5.4-9.9c-3-1.9-6.2-2.4-15.3-2.4
					C736.3,149.2,734.4,149.2,734.4,149.2z M155.3,149.2h-2h-27h-2l2.2,0.7c3.3,1.1,4.6,3.3,4.6,8.1v26.9c0.2,7.4-0.7,9.5-4.9,11
					l-2,0.7h2h35.8l3.4-13.2h-2c-3.2,5.3-10.3,8.9-17.1,9.1c-3.2-0.1-4-1.3-4-5.4l0.1-2.9v-10.7h1.9h2h0.1c5.1,0.1,9.2,1.3,11.2,5.1
					h0.7l-0.1-14.9h-0.8c-1.5,4-5.3,5-11.1,5h-1.4h-2.5v-15.8h3.8c6.8,0.1,11.6,1.7,14.6,6.6h2l-1-10.5
					C162,149.1,158.5,149.3,155.3,149.2 M388.3,149.2h-2h-27h-2l2.2,0.7c3.3,1.1,4.6,3.3,4.6,8.1v26.9c0.2,7.4-0.7,9.5-4.9,11
					l-2,0.7h2h35.8l3.4-13.2h-2c-3.2,5.3-10.3,8.9-17.1,9.1c-3.2-0.1-4-1.3-4-5.4l0.1-2.9v-10.7h1.9h2h0.1c5.1,0.1,9.2,1.3,11.2,5.1
					h0.7l-0.1-14.9h-0.8c-1.5,4-5.3,5-11.1,5h-1.4h-2.5v-15.8h3.8c6.8,0.1,11.6,1.7,14.6,6.6h2l-1-10.5
					C395.1,149.1,391.6,149.3,388.3,149.2 M499.4,149.2h-2h-27h-2l2.2,0.7c3.3,1.1,4.6,3.3,4.6,8.1v26.9c0.2,7.4-0.7,9.5-4.9,11
					l-2,0.7h2h35.8l3.4-13.2h-2c-3.2,5.3-10.3,8.9-17.1,9.1c-3.2-0.1-4-1.3-4-5.4l0.1-2.9v-10.7h1.9h2h0.1c5.1,0.1,9.2,1.3,11.2,5.1
					h0.7l-0.1-14.9h-0.8c-1.5,4-5.3,5-11.1,5h-1.4h-2.5v-15.8h3.8c6.8,0.1,11.6,1.7,14.6,6.6h2l-1-10.5
					C506.2,149.1,502.7,149.3,499.4,149.2 M696.8,149.2h-2h-27h-2l2.2,0.7c3.3,1.1,4.6,3.3,4.7,8.1v26.9c0.2,7.4-0.7,9.5-4.9,11
					l-2,0.7h2h35.8l3.4-13.2h-2c-3.2,5.3-10.3,8.9-17.1,9.1c-3.2-0.1-4-1.3-4-5.4l0.1-2.9v-10.7h1.9h2h0.1c5.1,0.1,9.2,1.3,11.2,5.1
					h0.7l-0.1-14.9h-0.8c-1.5,4-5.3,5-11.1,5h-1.4h-2.5v-15.8h3.8c6.8,0.1,11.6,1.7,14.6,6.6h2l-1-10.5
					C703.6,149.1,700,149.3,696.8,149.2 M75.6,149.1h-9.8h-2l1.1,0.7c2.5,1.6,3.5,4.1,3.6,9.3v21.1l-26.1-31.1h-2H28.6h-2l-0.1,0.7
					c0.8,0.1,3.8,2.3,5.5,4.1v33.3c-0.1,4.8-1.3,7-4.8,8.7l-1.4,0.7h2h16.3c-1.9-0.9-3.4-2.4-4.2-4.4c-0.5-1.1-0.7-2.6-0.8-5v-26.3
					L67,196.5l0.1,0.2h2h4.6h2v-37.3c0.1-4.8,0.8-7.2,3.3-9.1l1.3-1.1L75.6,149.1L75.6,149.1z M456.4,149.1h-9.8h-2l1.1,0.7
					c2.5,1.6,3.5,4.1,3.6,9.3v21.1l-26.1-31.1h-2h-11.8h-2l-0.1,0.7c0.8,0.1,3.8,2.3,5.5,4.1v33.3c-0.1,4.8-1.4,7-4.8,8.7l-1.4,0.7
					h2H425c-1.9-0.9-3.4-2.4-4.2-4.4c-0.5-1.1-0.7-2.6-0.8-5v-26.3l27.8,35.6l0.1,0.2h2h4.6h2v-37.3c0.1-4.8,0.8-7.2,3.3-9.1
					l1.2-1.1L456.4,149.1L456.4,149.1z M654.4,149.1h-9.8h-2l1.1,0.7c2.5,1.6,3.5,4.1,3.6,9.3v21.1l-26.2-31.1h-2h-11.8h-2l-0.1,0.7
					c0.8,0.1,3.8,2.3,5.5,4.1v33.3c-0.1,4.8-1.4,7-4.8,8.7l-1.4,0.7h2h16.3c-1.9-0.9-3.4-2.4-4.2-4.4c-0.5-1.1-0.7-2.6-0.8-5v-26.3
					l27.8,35.6l0.1,0.2h2h4.6h2v-37.3c0.1-4.8,0.8-7.2,3.3-9.1l1.2-1.1L654.4,149.1L654.4,149.1z M171.5,158.5l2.3,0.8
					c4.1-5.9,8.2-5.9,15-5.9h0.9v33.3c0,4.9-1.2,7.9-3.8,9.2l-1.5,0.7h2h9.7h8.5h2l-1.5-0.7c-2.6-1.3-3.8-4.3-3.8-9.2l0-33.3h2.7h2
					c0.3,0,1.4,0,1.7,0c2.5,0.1,5.2,0.4,6.1,1.3c0.8,0.8,0.8,2,0.9,4.4h1.9l3.6-9.9l-31.8-0.1h-2l-4.3,0.1c-3.4,0.1-6.5-0.9-6.5-0.9
					L171.5,158.5z M516.3,158.5l2.3,0.8c4.1-5.9,8.2-5.9,15-5.9h0.9v33.3c0,4.9-1.2,7.9-3.8,9.2l-1.5,0.7h2h9.7h8.5h2l-1.5-0.7
					c-2.6-1.3-3.8-4.3-3.8-9.2l0-33.3h2.7h2c0.3,0,1.4,0,1.6,0c2.5,0.1,5.2,0.4,6.1,1.3c0.8,0.8,0.8,2,0.9,4.4h1.9l3.6-9.9
					l-31.8-0.1h-2l-4.3,0.1c-3.4,0.1-6.4-0.9-6.4-0.9L516.3,158.5z M236,172.8c0-11.7,6.5-21.2,14.6-21.2c8.1,0,14.6,9.5,14.6,21.2
					c0,11.7-6.5,21.2-14.6,21.2C242.5,194.1,236,184.6,236,172.8 M222.9,173.1c0,14,12.4,25.3,27.7,25.3s27.7-11.3,27.7-25.3
					c0-14-12.4-25.3-27.7-25.3S222.9,159.2,222.9,173.1 M327.4,147.7c-9.5,0-15.8,5.3-15.8,13.1c0,6.4,4.4,10.7,15.5,15.1l0.9,0.4
					c3.9,1.5,4,1.6,5.3,2.4c3.3,2.1,4.9,4.6,4.9,7.7c0,4.6-3.7,8.5-8.7,8.5c-9.4-0.6-14.5-7.8-16.8-12.6h-1.6l0.1,9.9l0.1,0.1
					c0.7,0.6,1.3,1,2.4,1.6c5.6,3.1,11.2,4.2,16.5,4.1c5.8-0.2,10.2-1.4,13.4-4.2c3.3-2.8,5.3-7.1,5.3-11.2c0-2.7-0.8-5.1-2.3-7.3
					c-1.7-2.5-4.8-4.5-9.7-6.4c-10-4-10.3-4.1-12.2-5.8c-1.3-1.1-2.2-3.1-2.2-4.9c0-3.8,3-6.7,7.1-7.3c7-0.9,12,3.7,13.3,7.6h2.3
					l-0.1-9l-2.1-0.1l-0.1,0.2c-0.3,0.5-0.7,1.3-2,0.8c-0.3-0.1-0.6-0.2-1-0.4c-3.2-1.5-6.9-2.3-10.5-2.3L327.4,147.7L327.4,147.7z"
					/>
			</defs>
			<clipPath id="SVGID_8_">
				<use xlink:href="#SVGID_7_"  style="overflow:visible;"/>
			</clipPath>
			<rect x="25.9" y="147.7" class="st3" width="742.6" height="108.1"/>
		</g>
	</g>
</g>
</svg>
