<?xml version="1.0" encoding="utf-8"?>
<!-- Generator: Adobe Illustrator 24.1.0, SVG Export Plug-In . SVG Version: 6.00 Build 0)  -->
<svg version="1.1" id="Layer_1" xmlns="http://www.w3.org/2000/svg" xmlns:xlink="http://www.w3.org/1999/xlink" x="0px" y="0px"
	 viewBox="0 0 794.1 276" style="enable-background:new 0 0 794.1 276;" xml:space="preserve">
<style type="text/css">
	.st0{fill:#151011;}
	.st1{fill:url(#SVGID_1_);}
	.st2{fill:url(#SVGID_2_);}
	.st3{fill:url(#SVGID_3_);}
	.st4{fill:url(#SVGID_4_);}
	.st5{fill:url(#SVGID_5_);}
	.st6{fill:url(#SVGID_6_);}
	.st7{fill:url(#SVGID_7_);}
	.st8{fill:url(#SVGID_8_);}
	.st9{fill:url(#SVGID_9_);}
	.st10{fill:url(#SVGID_10_);}
	.st11{fill:url(#SVGID_11_);}
</style>
<g>
	<g>
		<g>
			<path class="st0" d="M27.3,172.1c-0.9,0-1.3,0.5-1.3,1.5V185c0,6.5,2.5,8.7,7.1,8.7c0.7,0,1.2,0.4,1.2,0.9c0,0.5-0.5,0.9-1.2,0.9
				c-3.6,0-7.5-0.2-11.2-0.2c-3.6,0-7.5,0.2-11.2,0.2c-0.7,0-1.1-0.4-1.1-0.9c0-0.5,0.5-0.9,1.1-0.9c4.6,0,7.2-2.2,7.2-8.7v-36.1
				c0-6.5-2.6-8.7-7.2-8.7c-0.7,0-1.1-0.4-1.1-0.9c0-0.5,0.5-0.9,1.1-0.9c3.7,0,7.6,0.2,11.2,0.2c6.3,0,13-0.2,19.3-0.2
				c16.1,0,23.4,5.3,23.4,17c0,12.2-8.2,16.7-21.4,16.7H27.3z M42,165.8c9.4,0,13.4-2.7,13.4-10c0-8.8-5.5-11.1-15.1-11.1H27.9
				c-1.4,0-1.9,0.6-1.9,2.1v17.5c0,1,0.4,1.5,1.3,1.5H42z"/>
			<path class="st0" d="M123.4,183.4c-0.4-1.2-1.3-1.9-2.8-1.9h-26c-1.5,0-2.3,0.7-2.8,1.9l-0.7,1.7c-0.8,1.9-1.2,3.3-1.2,4.7
				c0,2.8,1.9,4,5.9,4c0.7,0,1.2,0.4,1.2,0.9c0,0.5-0.4,0.9-1.2,0.9c-3.6,0-6.9-0.2-10.6-0.2c-3.7,0-6.6,0.2-10.3,0.2
				c-0.7,0-1.1-0.4-1.1-0.9c0-0.5,0.4-0.9,1.1-0.9c3.5,0,5.8-2.5,8.3-8.7l14.4-35.3c1-2.4,1.5-4.2,1.5-5.7c0-2.7-1.7-3.8-5.1-3.8
				c-0.7,0-1.1-0.4-1.1-0.9c0-0.5,0.4-0.9,1.1-0.9c4.9,0,9.1,0.2,14.1,0.2c4.9,0,9.1-0.2,14-0.2c0.7,0,1.2,0.4,1.2,0.9
				c0,0.5-0.4,0.9-1.2,0.9c-3.3,0-5.1,1.1-5.1,3.9c0,1.4,0.5,3.3,1.5,5.6l14.4,35.3c2.5,6.1,4.8,8.7,8.3,8.7c0.7,0,1.2,0.4,1.2,0.9
				c0,0.5-0.4,0.9-1.2,0.9c-3.6,0-7-0.2-10.7-0.2c-3.7,0-7.4,0.2-11.1,0.2c-0.7,0-1.1-0.4-1.1-0.9c0-0.5,0.4-0.9,1.1-0.9
				c3.9,0,5.9-1.2,5.9-4c0-1.3-0.4-2.8-1.1-4.7L123.4,183.4z M109.4,148.5c-0.8-2-1.1-2.5-1.8-2.5c-0.7,0-1,0.5-1.8,2.5l-9.7,24.3
				c-0.2,0.5-0.3,0.9-0.3,1.1c0,0.7,0.4,1,1.3,1H118c1,0,1.4-0.2,1.4-1c0-0.2-0.1-0.7-0.3-1.1L109.4,148.5z"/>
			<path class="st0" d="M175.3,147c0-1.5-0.5-2.1-1.9-2.1h-5.5c-8.5,0-11.2,3.1-14.2,10.4c-0.3,0.8-0.7,1.1-1,1.1
				c-0.3,0-0.6-0.2-0.6-0.7c0-0.2,0-0.4,0.1-0.7c1.5-5.8,2.8-11.8,3.9-17.6c0.1-0.6,0.4-0.9,0.7-0.9c0.3,0,0.5,0.2,0.7,0.6
				c0.6,1.1,1.5,1.4,4.5,1.6c5.5,0.2,10.1,0.2,17.3,0.2c7.3,0,11.9,0,17.4-0.2c3-0.2,3.9-0.5,4.5-1.6c0.2-0.4,0.4-0.6,0.7-0.6
				c0.4,0,0.7,0.3,0.7,0.9c1.1,5.9,2.4,11.8,3.9,17.6c0.1,0.3,0.1,0.6,0.1,0.7c0,0.5-0.3,0.7-0.6,0.7c-0.4,0-0.7-0.2-1-1.1
				c-3-7.3-5.7-10.4-14.3-10.4h-5.4c-1.4,0-1.9,0.6-1.9,2.1v38c0,6.5,2.6,8.7,7.2,8.7c0.7,0,1.1,0.4,1.1,0.9c0,0.5-0.4,0.9-1.1,0.9
				c-3.7,0-7.6-0.2-11.3-0.2c-3.6,0-7.5,0.2-11.2,0.2c-0.7,0-1.1-0.4-1.1-0.9c0-0.5,0.4-0.9,1.1-0.9c4.6,0,7.2-2.2,7.2-8.7V147z"/>
			<path class="st0" d="M253.9,172.7c-1-1.4-2.2-2.1-4.2-2.1h-8.7c-0.9,0-1.3,0.5-1.3,1.5v13c0,6.5,2.5,8.7,7.1,8.7
				c0.7,0,1.2,0.4,1.2,0.9c0,0.5-0.4,0.9-1.2,0.9c-3.6,0-7.5-0.2-11.2-0.2c-3.6,0-7.5,0.2-11.2,0.2c-0.7,0-1.1-0.4-1.1-0.9
				c0-0.5,0.4-0.9,1.1-0.9c4.6,0,7.2-2.2,7.2-8.7v-36.1c0-6.5-2.6-8.7-7.2-8.7c-0.7,0-1.1-0.4-1.1-0.9c0-0.5,0.4-0.9,1.1-0.9
				c3.7,0,7.6,0.2,11.2,0.2c7.1,0,14.4-0.2,21.5-0.2c15.4,0,22.3,5.1,22.3,16.2c0,10.3-6,14.8-16,15.8c-0.5,0.1-0.7,0.4-0.7,0.7
				c0,0.2,0.1,0.5,0.3,0.7l9.9,13.2c5,6.5,7.7,8.7,11.5,8.7c0.7,0,1.1,0.4,1.1,0.9c0,0.5-0.4,0.9-1.1,0.9c-3.8,0-7.6-0.2-11.3-0.2
				c-3.7,0-7.6,0.2-11.3,0.2c-0.7,0-1.1-0.4-1.1-0.9c0-0.5,0.4-0.9,1.1-0.9c2.8,0,4-0.7,4-2.4c0-1.6-1-3.9-3.5-7.3L253.9,172.7z
				 M257.7,164.3c8.7,0,12.4-2.5,12.4-9.4c0-8.2-5.1-10.3-14.1-10.3h-14.6c-1.4,0-1.9,0.6-1.9,2.1v16.1c0,1,0.4,1.5,1.3,1.5H257.7z"
				/>
			<path class="st0" d="M311.4,148.9c0-6.5-2.6-8.7-7.2-8.7c-0.7,0-1.1-0.4-1.1-0.9c0-0.5,0.4-0.9,1.1-0.9c3.7,0,7.6,0.2,11.2,0.2
				c3.7,0,7.6-0.2,11.2-0.2c0.7,0,1.2,0.4,1.2,0.9c0,0.5-0.4,0.9-1.2,0.9c-4.6,0-7.1,2.2-7.1,8.7V185c0,6.5,2.5,8.7,7.1,8.7
				c0.7,0,1.2,0.4,1.2,0.9c0,0.5-0.4,0.9-1.2,0.9c-3.6,0-7.5-0.2-11.2-0.2c-3.6,0-7.5,0.2-11.2,0.2c-0.7,0-1.1-0.4-1.1-0.9
				c0-0.5,0.4-0.9,1.1-0.9c4.6,0,7.2-2.2,7.2-8.7V148.9z"/>
			<path class="st0" d="M410.2,149.2c0-0.8-0.3-1.4-0.7-1.4c-0.3,0-0.7,0.2-1,0.9l-21.3,43.8c-0.3,0.7-0.5,1.2-1.2,1.2
				c-0.6,0-0.8-0.4-1.2-1.2l-21.2-43.8c-0.4-0.7-0.7-0.9-1-0.9c-0.4,0-0.7,0.6-0.7,1.4V185c0,6.5,2.6,8.7,7.2,8.7
				c0.7,0,1.1,0.4,1.1,0.9c0,0.5-0.4,0.9-1.1,0.9c-3.6,0-7.3-0.2-10.9-0.2c-3.5,0-7.3,0.2-10.9,0.2c-0.7,0-1.1-0.4-1.1-0.9
				c0-0.5,0.4-0.9,1.1-0.9c4.6,0,7.2-2.2,7.2-8.7v-36.1c0-6.5-2.5-8.7-7.2-8.7c-0.7,0-1.1-0.4-1.1-0.9c0-0.5,0.4-0.9,1.1-0.9
				c2.8,0,5.9,0.2,8.8,0.2c2.8,0,6.1-0.2,9-0.2c1.8,0,2.4,0.5,3.1,1.9l17.6,37.2c0.1,0.2,0.2,0.3,0.4,0.3c0.2,0,0.4-0.2,0.4-0.3
				l17.6-37.2c0.7-1.4,1.3-1.9,3.1-1.9c2.9,0,6.2,0.2,9.1,0.2c3,0,5.9-0.2,8.9-0.2c0.7,0,1.2,0.4,1.2,0.9c0,0.5-0.4,0.9-1.2,0.9
				c-4.6,0-7.1,2.2-7.1,8.7V185c0,6.5,2.5,8.7,7.1,8.7c0.7,0,1.2,0.4,1.2,0.9c0,0.5-0.4,0.9-1.2,0.9c-3.6,0-7.5-0.2-11.2-0.2
				c-3.6,0-7.5,0.2-11.2,0.2c-0.7,0-1.1-0.4-1.1-0.9c0-0.5,0.4-0.9,1.1-0.9c4.6,0,7.2-2.2,7.2-8.7V149.2z"/>
			<path class="st0" d="M473.6,196.7c-17.3,0-30.1-11.7-30.1-29.7c0-18,12.9-29.7,30.1-29.7c17.3,0,30.1,11.7,30.1,29.7
				C503.6,185,490.8,196.7,473.6,196.7z M494.4,167.8c0-14.9-8.1-24.2-20.8-24.2c-12.7,0-20.8,9.3-20.8,22.6
				c0,14.9,8.1,24.2,20.8,24.2C486.3,190.4,494.4,181.1,494.4,167.8z"/>
			<path class="st0" d="M537.6,148.4c-0.4-0.5-0.7-0.7-1-0.7c-0.4,0-0.7,0.4-0.7,1.3V185c0,6.5,2.6,8.7,7.2,8.7
				c0.7,0,1.1,0.4,1.1,0.9c0,0.5-0.4,0.9-1.1,0.9c-3.6,0-7.3-0.2-10.9-0.2c-3.5,0-7.3,0.2-10.9,0.2c-0.7,0-1.1-0.4-1.1-0.9
				c0-0.5,0.4-0.9,1.1-0.9c4.6,0,7.2-2.2,7.2-8.7v-36.1c0-6.5-2.6-8.7-7.2-8.7c-0.7,0-1.1-0.4-1.1-0.9c0-0.5,0.4-0.9,1.1-0.9
				c2.7,0,5.6,0.2,8.3,0.2s5.5-0.2,8.2-0.2c1.7,0,2.2,0.3,3.2,1.6l28.4,39.5c0.3,0.5,0.6,0.7,0.9,0.7c0.3,0,0.6-0.3,0.6-1.1v-30.2
				c0-6.5-2.6-8.7-7.2-8.7c-0.7,0-1.1-0.4-1.1-0.9c0-0.5,0.4-0.9,1.1-0.9c3.6,0,7.4,0.2,10.9,0.2c3.6,0,7.3-0.2,10.9-0.2
				c0.7,0,1.1,0.4,1.1,0.9c0,0.5-0.4,0.9-1.1,0.9c-4.6,0-7.2,2.2-7.2,8.7V185c0,6.5,2.6,8.7,7.2,8.7c0.7,0,1.1,0.4,1.1,0.9
				c0,0.5-0.4,0.9-1.1,0.9c-3.6,0-7.3-0.2-10.9-0.2c-3.5,0-7.3,0.2-10.9,0.2c-0.7,0-1.1-0.4-1.1-0.9c0-0.5,0.4-0.9,1.1-0.9
				c2.6,0,4.5-0.5,4.5-2c0-0.5-0.2-1.1-0.6-1.6L537.6,148.4z"/>
			<path class="st0" d="M613.5,148.9c0-6.5-2.6-8.7-7.2-8.7c-0.7,0-1.1-0.4-1.1-0.9c0-0.5,0.4-0.9,1.1-0.9c3.7,0,7.6,0.2,11.2,0.2
				c3.7,0,7.6-0.2,11.2-0.2c0.7,0,1.2,0.4,1.2,0.9c0,0.5-0.4,0.9-1.2,0.9c-4.6,0-7.1,2.2-7.1,8.7V185c0,6.5,2.5,8.7,7.1,8.7
				c0.7,0,1.2,0.4,1.2,0.9c0,0.5-0.4,0.9-1.2,0.9c-3.6,0-7.5-0.2-11.2-0.2c-3.6,0-7.5,0.2-11.2,0.2c-0.7,0-1.1-0.4-1.1-0.9
				c0-0.5,0.4-0.9,1.1-0.9c4.6,0,7.2-2.2,7.2-8.7V148.9z"/>
			<path class="st0" d="M697,183.4c-0.4-1.2-1.3-1.9-2.8-1.9h-26c-1.5,0-2.3,0.7-2.8,1.9l-0.7,1.7c-0.8,1.9-1.2,3.3-1.2,4.7
				c0,2.8,1.9,4,5.9,4c0.7,0,1.2,0.4,1.2,0.9c0,0.5-0.4,0.9-1.2,0.9c-3.6,0-6.9-0.2-10.6-0.2c-3.7,0-6.6,0.2-10.3,0.2
				c-0.7,0-1.1-0.4-1.1-0.9c0-0.5,0.4-0.9,1.1-0.9c3.5,0,5.8-2.5,8.3-8.7l14.4-35.3c1-2.4,1.5-4.2,1.5-5.7c0-2.7-1.7-3.8-5.1-3.8
				c-0.7,0-1.1-0.4-1.1-0.9c0-0.5,0.4-0.9,1.1-0.9c4.9,0,9.1,0.2,14.1,0.2c4.9,0,9.1-0.2,14-0.2c0.7,0,1.2,0.4,1.2,0.9
				c0,0.5-0.4,0.9-1.2,0.9c-3.3,0-5.1,1.1-5.1,3.9c0,1.4,0.5,3.3,1.5,5.6l14.4,35.3c2.5,6.1,4.8,8.7,8.3,8.7c0.7,0,1.2,0.4,1.2,0.9
				c0,0.5-0.4,0.9-1.2,0.9c-3.6,0-7-0.2-10.7-0.2c-3.7,0-7.4,0.2-11.1,0.2c-0.7,0-1.1-0.4-1.1-0.9c0-0.5,0.4-0.9,1.1-0.9
				c3.9,0,5.9-1.2,5.9-4c0-1.3-0.4-2.8-1.1-4.7L697,183.4z M683,148.5c-0.8-2-1.1-2.5-1.8-2.5s-1,0.5-1.8,2.5l-9.7,24.3
				c-0.2,0.5-0.3,0.9-0.3,1.1c0,0.7,0.4,1,1.3,1h20.9c1,0,1.4-0.2,1.4-1c0-0.2-0.1-0.7-0.3-1.1L683,148.5z"/>
			<path class="st0" d="M769.6,189.2c8.5,0,12.6-3.8,16.4-10.4c0.4-0.7,0.7-1.1,1.2-1.1c0.3,0,0.6,0.2,0.6,0.7c0,0.2,0,0.5-0.1,0.8
				c-2.5,5.8-4.3,11.5-6.1,17.4c-0.1,0.5-0.4,0.9-0.7,0.9c-0.3,0-0.5-0.2-0.8-0.6c-0.6-1.1-1.5-1.5-4.5-1.6
				c-11.6-0.2-21.7-0.2-29.5-0.2c-3.6,0-7.5,0.2-11.2,0.2c-0.7,0-1.1-0.4-1.1-0.9c0-0.5,0.5-0.9,1.1-0.9c4.6,0,7.2-2.2,7.2-8.7
				v-36.1c0-6.5-2.6-8.7-7.2-8.7c-0.7,0-1.1-0.4-1.1-0.9c0-0.5,0.5-0.9,1.1-0.9c3.7,0,7.6,0.2,11.2,0.2c3.7,0,7.6-0.2,11.2-0.2
				c0.7,0,1.2,0.4,1.2,0.9c0,0.5-0.5,0.9-1.2,0.9c-4.6,0-7.1,2.2-7.1,8.7V185c0,3.1,1,4.2,3.8,4.2H769.6z"/>
		</g>
		<g>
			<linearGradient id="SVGID_1_" gradientUnits="userSpaceOnUse" x1="4.5787" y1="166.9576" x2="777.4239" y2="166.9576">
				<stop  offset="0" style="stop-color:#E89871"/>
				<stop  offset="3.602146e-02" style="stop-color:#ECA780"/>
				<stop  offset="9.640318e-02" style="stop-color:#F0BB92"/>
				<stop  offset="0.158" style="stop-color:#F3C69D"/>
				<stop  offset="0.2221" style="stop-color:#F4CAA1"/>
				<stop  offset="0.2639" style="stop-color:#EFC29A"/>
				<stop  offset="0.3286" style="stop-color:#E2AC87"/>
				<stop  offset="0.4082" style="stop-color:#CC8867"/>
				<stop  offset="0.4988" style="stop-color:#AE573C"/>
				<stop  offset="0.5521" style="stop-color:#9A3720"/>
				<stop  offset="0.7464" style="stop-color:#8F3521"/>
				<stop  offset="0.8531" style="stop-color:#BF5631"/>
				<stop  offset="0.9548" style="stop-color:#924025"/>
			</linearGradient>
			<path class="st1" d="M27.3,172.1c-0.9,0-1.3,0.5-1.3,1.5V185c0,6.5,2.5,8.7,7.1,8.7c0.7,0,1.2,0.4,1.2,0.9c0,0.5-0.5,0.9-1.2,0.9
				c-3.6,0-7.5-0.2-11.2-0.2c-3.6,0-7.5,0.2-11.2,0.2c-0.7,0-1.1-0.4-1.1-0.9c0-0.5,0.5-0.9,1.1-0.9c4.6,0,7.2-2.2,7.2-8.7v-36.1
				c0-6.5-2.6-8.7-7.2-8.7c-0.7,0-1.1-0.4-1.1-0.9c0-0.5,0.5-0.9,1.1-0.9c3.7,0,7.6,0.2,11.2,0.2c6.3,0,13-0.2,19.3-0.2
				c16.1,0,23.4,5.3,23.4,17c0,12.2-8.2,16.7-21.4,16.7H27.3z M42,165.8c9.4,0,13.4-2.7,13.4-10c0-8.8-5.5-11.1-15.1-11.1H27.9
				c-1.4,0-1.9,0.6-1.9,2.1v17.5c0,1,0.4,1.5,1.3,1.5H42z"/>
			<linearGradient id="SVGID_2_" gradientUnits="userSpaceOnUse" x1="4.5787" y1="166.9576" x2="777.4239" y2="166.9576">
				<stop  offset="0" style="stop-color:#E89871"/>
				<stop  offset="3.602146e-02" style="stop-color:#ECA780"/>
				<stop  offset="9.640318e-02" style="stop-color:#F0BB92"/>
				<stop  offset="0.158" style="stop-color:#F3C69D"/>
				<stop  offset="0.2221" style="stop-color:#F4CAA1"/>
				<stop  offset="0.2639" style="stop-color:#EFC29A"/>
				<stop  offset="0.3286" style="stop-color:#E2AC87"/>
				<stop  offset="0.4082" style="stop-color:#CC8867"/>
				<stop  offset="0.4988" style="stop-color:#AE573C"/>
				<stop  offset="0.5521" style="stop-color:#9A3720"/>
				<stop  offset="0.7464" style="stop-color:#8F3521"/>
				<stop  offset="0.8531" style="stop-color:#BF5631"/>
				<stop  offset="0.9548" style="stop-color:#924025"/>
			</linearGradient>
			<path class="st2" d="M123.4,183.4c-0.4-1.2-1.3-1.9-2.8-1.9h-26c-1.5,0-2.3,0.7-2.8,1.9l-0.7,1.7c-0.8,1.9-1.2,3.3-1.2,4.7
				c0,2.8,1.9,4,5.9,4c0.7,0,1.2,0.4,1.2,0.9c0,0.5-0.4,0.9-1.2,0.9c-3.6,0-6.9-0.2-10.6-0.2c-3.7,0-6.6,0.2-10.3,0.2
				c-0.7,0-1.1-0.4-1.1-0.9c0-0.5,0.4-0.9,1.1-0.9c3.5,0,5.8-2.5,8.3-8.7l14.4-35.3c1-2.4,1.5-4.2,1.5-5.7c0-2.7-1.7-3.8-5.1-3.8
				c-0.7,0-1.1-0.4-1.1-0.9c0-0.5,0.4-0.9,1.1-0.9c4.9,0,9.1,0.2,14.1,0.2c4.9,0,9.1-0.2,14-0.2c0.7,0,1.2,0.4,1.2,0.9
				c0,0.5-0.4,0.9-1.2,0.9c-3.3,0-5.1,1.1-5.1,3.9c0,1.4,0.5,3.3,1.5,5.6l14.4,35.3c2.5,6.1,4.8,8.7,8.3,8.7c0.7,0,1.2,0.4,1.2,0.9
				c0,0.5-0.4,0.9-1.2,0.9c-3.6,0-7-0.2-10.7-0.2c-3.7,0-7.4,0.2-11.1,0.2c-0.7,0-1.1-0.4-1.1-0.9c0-0.5,0.4-0.9,1.1-0.9
				c3.9,0,5.9-1.2,5.9-4c0-1.3-0.4-2.8-1.1-4.7L123.4,183.4z M109.4,148.5c-0.8-2-1.1-2.5-1.8-2.5c-0.7,0-1,0.5-1.8,2.5l-9.7,24.3
				c-0.2,0.5-0.3,0.9-0.3,1.1c0,0.7,0.4,1,1.3,1H118c1,0,1.4-0.2,1.4-1c0-0.2-0.1-0.7-0.3-1.1L109.4,148.5z"/>
			<linearGradient id="SVGID_3_" gradientUnits="userSpaceOnUse" x1="4.5787" y1="166.9576" x2="777.4239" y2="166.9576">
				<stop  offset="0" style="stop-color:#E89871"/>
				<stop  offset="3.602146e-02" style="stop-color:#ECA780"/>
				<stop  offset="9.640318e-02" style="stop-color:#F0BB92"/>
				<stop  offset="0.158" style="stop-color:#F3C69D"/>
				<stop  offset="0.2221" style="stop-color:#F4CAA1"/>
				<stop  offset="0.2639" style="stop-color:#EFC29A"/>
				<stop  offset="0.3286" style="stop-color:#E2AC87"/>
				<stop  offset="0.4082" style="stop-color:#CC8867"/>
				<stop  offset="0.4988" style="stop-color:#AE573C"/>
				<stop  offset="0.5521" style="stop-color:#9A3720"/>
				<stop  offset="0.7464" style="stop-color:#8F3521"/>
				<stop  offset="0.8531" style="stop-color:#BF5631"/>
				<stop  offset="0.9548" style="stop-color:#924025"/>
			</linearGradient>
			<path class="st3" d="M175.3,147c0-1.5-0.5-2.1-1.9-2.1h-5.5c-8.5,0-11.2,3.1-14.2,10.4c-0.3,0.8-0.7,1.1-1,1.1
				c-0.3,0-0.6-0.2-0.6-0.7c0-0.2,0-0.4,0.1-0.7c1.5-5.8,2.8-11.8,3.9-17.6c0.1-0.6,0.4-0.9,0.7-0.9c0.3,0,0.5,0.2,0.7,0.6
				c0.6,1.1,1.5,1.4,4.5,1.6c5.5,0.2,10.1,0.2,17.3,0.2c7.3,0,11.9,0,17.4-0.2c3-0.2,3.9-0.5,4.5-1.6c0.2-0.4,0.4-0.6,0.7-0.6
				c0.4,0,0.7,0.3,0.7,0.9c1.1,5.9,2.4,11.8,3.9,17.6c0.1,0.3,0.1,0.6,0.1,0.7c0,0.5-0.3,0.7-0.6,0.7c-0.4,0-0.7-0.2-1-1.1
				c-3-7.3-5.7-10.4-14.3-10.4h-5.4c-1.4,0-1.9,0.6-1.9,2.1v38c0,6.5,2.6,8.7,7.2,8.7c0.7,0,1.1,0.4,1.1,0.9c0,0.5-0.4,0.9-1.1,0.9
				c-3.7,0-7.6-0.2-11.3-0.2c-3.6,0-7.5,0.2-11.2,0.2c-0.7,0-1.1-0.4-1.1-0.9c0-0.5,0.4-0.9,1.1-0.9c4.6,0,7.2-2.2,7.2-8.7V147z"/>
			<linearGradient id="SVGID_4_" gradientUnits="userSpaceOnUse" x1="4.5787" y1="166.9576" x2="777.4239" y2="166.9576">
				<stop  offset="0" style="stop-color:#E89871"/>
				<stop  offset="3.602146e-02" style="stop-color:#ECA780"/>
				<stop  offset="9.640318e-02" style="stop-color:#F0BB92"/>
				<stop  offset="0.158" style="stop-color:#F3C69D"/>
				<stop  offset="0.2221" style="stop-color:#F4CAA1"/>
				<stop  offset="0.2639" style="stop-color:#EFC29A"/>
				<stop  offset="0.3286" style="stop-color:#E2AC87"/>
				<stop  offset="0.4082" style="stop-color:#CC8867"/>
				<stop  offset="0.4988" style="stop-color:#AE573C"/>
				<stop  offset="0.5521" style="stop-color:#9A3720"/>
				<stop  offset="0.7464" style="stop-color:#8F3521"/>
				<stop  offset="0.8531" style="stop-color:#BF5631"/>
				<stop  offset="0.9548" style="stop-color:#924025"/>
			</linearGradient>
			<path class="st4" d="M253.9,172.7c-1-1.4-2.2-2.1-4.2-2.1h-8.7c-0.9,0-1.3,0.5-1.3,1.5v13c0,6.5,2.5,8.7,7.1,8.7
				c0.7,0,1.2,0.4,1.2,0.9c0,0.5-0.4,0.9-1.2,0.9c-3.6,0-7.5-0.2-11.2-0.2c-3.6,0-7.5,0.2-11.2,0.2c-0.7,0-1.1-0.4-1.1-0.9
				c0-0.5,0.4-0.9,1.1-0.9c4.6,0,7.2-2.2,7.2-8.7v-36.1c0-6.5-2.6-8.7-7.2-8.7c-0.7,0-1.1-0.4-1.1-0.9c0-0.5,0.4-0.9,1.1-0.9
				c3.7,0,7.6,0.2,11.2,0.2c7.1,0,14.4-0.2,21.5-0.2c15.4,0,22.3,5.1,22.3,16.2c0,10.3-6,14.8-16,15.8c-0.5,0.1-0.7,0.4-0.7,0.7
				c0,0.2,0.1,0.5,0.3,0.7l9.9,13.2c5,6.5,7.7,8.7,11.5,8.7c0.7,0,1.1,0.4,1.1,0.9c0,0.5-0.4,0.9-1.1,0.9c-3.8,0-7.6-0.2-11.3-0.2
				c-3.7,0-7.6,0.2-11.3,0.2c-0.7,0-1.1-0.4-1.1-0.9c0-0.5,0.4-0.9,1.1-0.9c2.8,0,4-0.7,4-2.4c0-1.6-1-3.9-3.5-7.3L253.9,172.7z
				 M257.7,164.3c8.7,0,12.4-2.5,12.4-9.4c0-8.2-5.1-10.3-14.1-10.3h-14.6c-1.4,0-1.9,0.6-1.9,2.1v16.1c0,1,0.4,1.5,1.3,1.5H257.7z"
				/>
			<linearGradient id="SVGID_5_" gradientUnits="userSpaceOnUse" x1="4.5787" y1="166.9576" x2="777.4239" y2="166.9576">
				<stop  offset="0" style="stop-color:#E89871"/>
				<stop  offset="3.602146e-02" style="stop-color:#ECA780"/>
				<stop  offset="9.640318e-02" style="stop-color:#F0BB92"/>
				<stop  offset="0.158" style="stop-color:#F3C69D"/>
				<stop  offset="0.2221" style="stop-color:#F4CAA1"/>
				<stop  offset="0.2639" style="stop-color:#EFC29A"/>
				<stop  offset="0.3286" style="stop-color:#E2AC87"/>
				<stop  offset="0.4082" style="stop-color:#CC8867"/>
				<stop  offset="0.4988" style="stop-color:#AE573C"/>
				<stop  offset="0.5521" style="stop-color:#9A3720"/>
				<stop  offset="0.7464" style="stop-color:#8F3521"/>
				<stop  offset="0.8531" style="stop-color:#BF5631"/>
				<stop  offset="0.9548" style="stop-color:#924025"/>
			</linearGradient>
			<path class="st5" d="M311.4,148.9c0-6.5-2.6-8.7-7.2-8.7c-0.7,0-1.1-0.4-1.1-0.9c0-0.5,0.4-0.9,1.1-0.9c3.7,0,7.6,0.2,11.2,0.2
				c3.7,0,7.6-0.2,11.2-0.2c0.7,0,1.2,0.4,1.2,0.9c0,0.5-0.4,0.9-1.2,0.9c-4.6,0-7.1,2.2-7.1,8.7V185c0,6.5,2.5,8.7,7.1,8.7
				c0.7,0,1.2,0.4,1.2,0.9c0,0.5-0.4,0.9-1.2,0.9c-3.6,0-7.5-0.2-11.2-0.2c-3.6,0-7.5,0.2-11.2,0.2c-0.7,0-1.1-0.4-1.1-0.9
				c0-0.5,0.4-0.9,1.1-0.9c4.6,0,7.2-2.2,7.2-8.7V148.9z"/>
			<linearGradient id="SVGID_6_" gradientUnits="userSpaceOnUse" x1="4.5787" y1="166.9576" x2="777.4239" y2="166.9576">
				<stop  offset="0" style="stop-color:#E89871"/>
				<stop  offset="3.602146e-02" style="stop-color:#ECA780"/>
				<stop  offset="9.640318e-02" style="stop-color:#F0BB92"/>
				<stop  offset="0.158" style="stop-color:#F3C69D"/>
				<stop  offset="0.2221" style="stop-color:#F4CAA1"/>
				<stop  offset="0.2639" style="stop-color:#EFC29A"/>
				<stop  offset="0.3286" style="stop-color:#E2AC87"/>
				<stop  offset="0.4082" style="stop-color:#CC8867"/>
				<stop  offset="0.4988" style="stop-color:#AE573C"/>
				<stop  offset="0.5521" style="stop-color:#9A3720"/>
				<stop  offset="0.7464" style="stop-color:#8F3521"/>
				<stop  offset="0.8531" style="stop-color:#BF5631"/>
				<stop  offset="0.9548" style="stop-color:#924025"/>
			</linearGradient>
			<path class="st6" d="M410.2,149.2c0-0.8-0.3-1.4-0.7-1.4c-0.3,0-0.7,0.2-1,0.9l-21.3,43.8c-0.3,0.7-0.5,1.2-1.2,1.2
				c-0.6,0-0.8-0.4-1.2-1.2l-21.2-43.8c-0.4-0.7-0.7-0.9-1-0.9c-0.4,0-0.7,0.6-0.7,1.4V185c0,6.5,2.6,8.7,7.2,8.7
				c0.7,0,1.1,0.4,1.1,0.9c0,0.5-0.4,0.9-1.1,0.9c-3.6,0-7.3-0.2-10.9-0.2c-3.5,0-7.3,0.2-10.9,0.2c-0.7,0-1.1-0.4-1.1-0.9
				c0-0.5,0.4-0.9,1.1-0.9c4.6,0,7.2-2.2,7.2-8.7v-36.1c0-6.5-2.5-8.7-7.2-8.7c-0.7,0-1.1-0.4-1.1-0.9c0-0.5,0.4-0.9,1.1-0.9
				c2.8,0,5.9,0.2,8.8,0.2c2.8,0,6.1-0.2,9-0.2c1.8,0,2.4,0.5,3.1,1.9l17.6,37.2c0.1,0.2,0.2,0.3,0.4,0.3c0.2,0,0.4-0.2,0.4-0.3
				l17.6-37.2c0.7-1.4,1.3-1.9,3.1-1.9c2.9,0,6.2,0.2,9.1,0.2c3,0,5.9-0.2,8.9-0.2c0.7,0,1.2,0.4,1.2,0.9c0,0.5-0.4,0.9-1.2,0.9
				c-4.6,0-7.1,2.2-7.1,8.7V185c0,6.5,2.5,8.7,7.1,8.7c0.7,0,1.2,0.4,1.2,0.9c0,0.5-0.4,0.9-1.2,0.9c-3.6,0-7.5-0.2-11.2-0.2
				c-3.6,0-7.5,0.2-11.2,0.2c-0.7,0-1.1-0.4-1.1-0.9c0-0.5,0.4-0.9,1.1-0.9c4.6,0,7.2-2.2,7.2-8.7V149.2z"/>
			<linearGradient id="SVGID_7_" gradientUnits="userSpaceOnUse" x1="4.5787" y1="166.9576" x2="777.4239" y2="166.9576">
				<stop  offset="0" style="stop-color:#E89871"/>
				<stop  offset="3.602146e-02" style="stop-color:#ECA780"/>
				<stop  offset="9.640318e-02" style="stop-color:#F0BB92"/>
				<stop  offset="0.158" style="stop-color:#F3C69D"/>
				<stop  offset="0.2221" style="stop-color:#F4CAA1"/>
				<stop  offset="0.2639" style="stop-color:#EFC29A"/>
				<stop  offset="0.3286" style="stop-color:#E2AC87"/>
				<stop  offset="0.4082" style="stop-color:#CC8867"/>
				<stop  offset="0.4988" style="stop-color:#AE573C"/>
				<stop  offset="0.5521" style="stop-color:#9A3720"/>
				<stop  offset="0.7464" style="stop-color:#8F3521"/>
				<stop  offset="0.8531" style="stop-color:#BF5631"/>
				<stop  offset="0.9548" style="stop-color:#924025"/>
			</linearGradient>
			<path class="st7" d="M473.6,196.7c-17.3,0-30.1-11.7-30.1-29.7c0-18,12.9-29.7,30.1-29.7c17.3,0,30.1,11.7,30.1,29.7
				C503.6,185,490.8,196.7,473.6,196.7z M494.4,167.8c0-14.9-8.1-24.2-20.8-24.2c-12.7,0-20.8,9.3-20.8,22.6
				c0,14.9,8.1,24.2,20.8,24.2C486.3,190.4,494.4,181.1,494.4,167.8z"/>
			<linearGradient id="SVGID_8_" gradientUnits="userSpaceOnUse" x1="4.5787" y1="166.9576" x2="777.4239" y2="166.9576">
				<stop  offset="0" style="stop-color:#E89871"/>
				<stop  offset="3.602146e-02" style="stop-color:#ECA780"/>
				<stop  offset="9.640318e-02" style="stop-color:#F0BB92"/>
				<stop  offset="0.158" style="stop-color:#F3C69D"/>
				<stop  offset="0.2221" style="stop-color:#F4CAA1"/>
				<stop  offset="0.2639" style="stop-color:#EFC29A"/>
				<stop  offset="0.3286" style="stop-color:#E2AC87"/>
				<stop  offset="0.4082" style="stop-color:#CC8867"/>
				<stop  offset="0.4988" style="stop-color:#AE573C"/>
				<stop  offset="0.5521" style="stop-color:#9A3720"/>
				<stop  offset="0.7464" style="stop-color:#8F3521"/>
				<stop  offset="0.8531" style="stop-color:#BF5631"/>
				<stop  offset="0.9548" style="stop-color:#924025"/>
			</linearGradient>
			<path class="st8" d="M537.6,148.4c-0.4-0.5-0.7-0.7-1-0.7c-0.4,0-0.7,0.4-0.7,1.3V185c0,6.5,2.6,8.7,7.2,8.7
				c0.7,0,1.1,0.4,1.1,0.9c0,0.5-0.4,0.9-1.1,0.9c-3.6,0-7.3-0.2-10.9-0.2c-3.5,0-7.3,0.2-10.9,0.2c-0.7,0-1.1-0.4-1.1-0.9
				c0-0.5,0.4-0.9,1.1-0.9c4.6,0,7.2-2.2,7.2-8.7v-36.1c0-6.5-2.6-8.7-7.2-8.7c-0.7,0-1.1-0.4-1.1-0.9c0-0.5,0.4-0.9,1.1-0.9
				c2.7,0,5.6,0.2,8.3,0.2s5.5-0.2,8.2-0.2c1.7,0,2.2,0.3,3.2,1.6l28.4,39.5c0.3,0.5,0.6,0.7,0.9,0.7c0.3,0,0.6-0.3,0.6-1.1v-30.2
				c0-6.5-2.6-8.7-7.2-8.7c-0.7,0-1.1-0.4-1.1-0.9c0-0.5,0.4-0.9,1.1-0.9c3.6,0,7.4,0.2,10.9,0.2c3.6,0,7.3-0.2,10.9-0.2
				c0.7,0,1.1,0.4,1.1,0.9c0,0.5-0.4,0.9-1.1,0.9c-4.6,0-7.2,2.2-7.2,8.7V185c0,6.5,2.6,8.7,7.2,8.7c0.7,0,1.1,0.4,1.1,0.9
				c0,0.5-0.4,0.9-1.1,0.9c-3.6,0-7.3-0.2-10.9-0.2c-3.5,0-7.3,0.2-10.9,0.2c-0.7,0-1.1-0.4-1.1-0.9c0-0.5,0.4-0.9,1.1-0.9
				c2.6,0,4.5-0.5,4.5-2c0-0.5-0.2-1.1-0.6-1.6L537.6,148.4z"/>
			<linearGradient id="SVGID_9_" gradientUnits="userSpaceOnUse" x1="4.5787" y1="166.9576" x2="777.4239" y2="166.9576">
				<stop  offset="0" style="stop-color:#E89871"/>
				<stop  offset="3.602146e-02" style="stop-color:#ECA780"/>
				<stop  offset="9.640318e-02" style="stop-color:#F0BB92"/>
				<stop  offset="0.158" style="stop-color:#F3C69D"/>
				<stop  offset="0.2221" style="stop-color:#F4CAA1"/>
				<stop  offset="0.2639" style="stop-color:#EFC29A"/>
				<stop  offset="0.3286" style="stop-color:#E2AC87"/>
				<stop  offset="0.4082" style="stop-color:#CC8867"/>
				<stop  offset="0.4988" style="stop-color:#AE573C"/>
				<stop  offset="0.5521" style="stop-color:#9A3720"/>
				<stop  offset="0.7464" style="stop-color:#8F3521"/>
				<stop  offset="0.8531" style="stop-color:#BF5631"/>
				<stop  offset="0.9548" style="stop-color:#924025"/>
			</linearGradient>
			<path class="st9" d="M613.5,148.9c0-6.5-2.6-8.7-7.2-8.7c-0.7,0-1.1-0.4-1.1-0.9c0-0.5,0.4-0.9,1.1-0.9c3.7,0,7.6,0.2,11.2,0.2
				c3.7,0,7.6-0.2,11.2-0.2c0.7,0,1.2,0.4,1.2,0.9c0,0.5-0.4,0.9-1.2,0.9c-4.6,0-7.1,2.2-7.1,8.7V185c0,6.5,2.5,8.7,7.1,8.7
				c0.7,0,1.2,0.4,1.2,0.9c0,0.5-0.4,0.9-1.2,0.9c-3.6,0-7.5-0.2-11.2-0.2c-3.6,0-7.5,0.2-11.2,0.2c-0.7,0-1.1-0.4-1.1-0.9
				c0-0.5,0.4-0.9,1.1-0.9c4.6,0,7.2-2.2,7.2-8.7V148.9z"/>
			<linearGradient id="SVGID_10_" gradientUnits="userSpaceOnUse" x1="4.5787" y1="166.9576" x2="777.4239" y2="166.9576">
				<stop  offset="0" style="stop-color:#E89871"/>
				<stop  offset="3.602146e-02" style="stop-color:#ECA780"/>
				<stop  offset="9.640318e-02" style="stop-color:#F0BB92"/>
				<stop  offset="0.158" style="stop-color:#F3C69D"/>
				<stop  offset="0.2221" style="stop-color:#F4CAA1"/>
				<stop  offset="0.2639" style="stop-color:#EFC29A"/>
				<stop  offset="0.3286" style="stop-color:#E2AC87"/>
				<stop  offset="0.4082" style="stop-color:#CC8867"/>
				<stop  offset="0.4988" style="stop-color:#AE573C"/>
				<stop  offset="0.5521" style="stop-color:#9A3720"/>
				<stop  offset="0.7464" style="stop-color:#8F3521"/>
				<stop  offset="0.8531" style="stop-color:#BF5631"/>
				<stop  offset="0.9548" style="stop-color:#924025"/>
			</linearGradient>
			<path class="st10" d="M697,183.4c-0.4-1.2-1.3-1.9-2.8-1.9h-26c-1.5,0-2.3,0.7-2.8,1.9l-0.7,1.7c-0.8,1.9-1.2,3.3-1.2,4.7
				c0,2.8,1.9,4,5.9,4c0.7,0,1.2,0.4,1.2,0.9c0,0.5-0.4,0.9-1.2,0.9c-3.6,0-6.9-0.2-10.6-0.2c-3.7,0-6.6,0.2-10.3,0.2
				c-0.7,0-1.1-0.4-1.1-0.9c0-0.5,0.4-0.9,1.1-0.9c3.5,0,5.8-2.5,8.3-8.7l14.4-35.3c1-2.4,1.5-4.2,1.5-5.7c0-2.7-1.7-3.8-5.1-3.8
				c-0.7,0-1.1-0.4-1.1-0.9c0-0.5,0.4-0.9,1.1-0.9c4.9,0,9.1,0.2,14.1,0.2c4.9,0,9.1-0.2,14-0.2c0.7,0,1.2,0.4,1.2,0.9
				c0,0.5-0.4,0.9-1.2,0.9c-3.3,0-5.1,1.1-5.1,3.9c0,1.4,0.5,3.3,1.5,5.6l14.4,35.3c2.5,6.1,4.8,8.7,8.3,8.7c0.7,0,1.2,0.4,1.2,0.9
				c0,0.5-0.4,0.9-1.2,0.9c-3.6,0-7-0.2-10.7-0.2c-3.7,0-7.4,0.2-11.1,0.2c-0.7,0-1.1-0.4-1.1-0.9c0-0.5,0.4-0.9,1.1-0.9
				c3.9,0,5.9-1.2,5.9-4c0-1.3-0.4-2.8-1.1-4.7L697,183.4z M683,148.5c-0.8-2-1.1-2.5-1.8-2.5s-1,0.5-1.8,2.5l-9.7,24.3
				c-0.2,0.5-0.3,0.9-0.3,1.1c0,0.7,0.4,1,1.3,1h20.9c1,0,1.4-0.2,1.4-1c0-0.2-0.1-0.7-0.3-1.1L683,148.5z"/>
			<linearGradient id="SVGID_11_" gradientUnits="userSpaceOnUse" x1="4.5787" y1="166.9576" x2="777.4239" y2="166.9576">
				<stop  offset="0" style="stop-color:#E89871"/>
				<stop  offset="3.602146e-02" style="stop-color:#ECA780"/>
				<stop  offset="9.640318e-02" style="stop-color:#F0BB92"/>
				<stop  offset="0.158" style="stop-color:#F3C69D"/>
				<stop  offset="0.2221" style="stop-color:#F4CAA1"/>
				<stop  offset="0.2639" style="stop-color:#EFC29A"/>
				<stop  offset="0.3286" style="stop-color:#E2AC87"/>
				<stop  offset="0.4082" style="stop-color:#CC8867"/>
				<stop  offset="0.4988" style="stop-color:#AE573C"/>
				<stop  offset="0.5521" style="stop-color:#9A3720"/>
				<stop  offset="0.7464" style="stop-color:#8F3521"/>
				<stop  offset="0.8531" style="stop-color:#BF5631"/>
				<stop  offset="0.9548" style="stop-color:#924025"/>
			</linearGradient>
			<path class="st11" d="M769.6,189.2c8.5,0,12.6-3.8,16.4-10.4c0.4-0.7,0.7-1.1,1.2-1.1c0.3,0,0.6,0.2,0.6,0.7c0,0.2,0,0.5-0.1,0.8
				c-2.5,5.8-4.3,11.5-6.1,17.4c-0.1,0.5-0.4,0.9-0.7,0.9c-0.3,0-0.5-0.2-0.8-0.6c-0.6-1.1-1.5-1.5-4.5-1.6
				c-11.6-0.2-21.7-0.2-29.5-0.2c-3.6,0-7.5,0.2-11.2,0.2c-0.7,0-1.1-0.4-1.1-0.9c0-0.5,0.5-0.9,1.1-0.9c4.6,0,7.2-2.2,7.2-8.7
				v-36.1c0-6.5-2.6-8.7-7.2-8.7c-0.7,0-1.1-0.4-1.1-0.9c0-0.5,0.5-0.9,1.1-0.9c3.7,0,7.6,0.2,11.2,0.2c3.7,0,7.6-0.2,11.2-0.2
				c0.7,0,1.2,0.4,1.2,0.9c0,0.5-0.5,0.9-1.2,0.9c-4.6,0-7.1,2.2-7.1,8.7V185c0,3.1,1,4.2,3.8,4.2H769.6z"/>
		</g>
	</g>
	<g>
		<g>
			<path class="st0" d="M164.2,91.8V81.5c-0.1-1.9-0.2-2.3-1.3-3.4c-0.5-0.4-0.6-0.5-1.1-0.6h5.6c-1.5,0.3-2.4,1.8-2.3,3.9v14.4
				h-0.8c-6.3-7.4-7.3-8.5-14-15.7v11c0.1,2.7,0.6,3.7,2.3,4.4h-5.2c1.9-1,2.2-1.6,2.2-4.5V79.3c-1.1-0.9-1.8-1.3-3-1.7h4.8
				L164.2,91.8z"/>
			<path class="st0" d="M193.5,77.6c-1.8,1.1-2,1.3-1.9,4.3V92c0,2.4,0.2,2.8,1.7,3.7h-5.7c1.5-0.8,1.7-1.2,1.7-3.7V81.9
				c0-2.8-0.1-3.2-1.8-4.3H193.5z"/>
			<path class="st0" d="M220.3,85.9c3.6,0,4.2-0.3,4.9-2.2h0.2c0,1.2-0.1,2.1-0.1,2.6c0,0.6,0,1.4,0.1,2.5h-0.2
				c-0.8-1.9-1.7-2.3-4.9-2.4h-2.5v5.1c0,2.7,0.4,3.3,2.2,3.3c3.4,0,4.7-0.2,5.8-0.9c1-0.6,1.8-1.3,2.4-2.3h0.2l-1.2,3.9H214
				c1.3-0.8,1.5-1.2,1.5-4.1V82c-0.1-2.7-0.5-3.6-2.2-4.4h13.4l0.5,3.8l-0.3,0.1c-1.3-2.4-2.7-2.9-6.9-2.8h-2.2v7.3H220.3z"/>
			<path class="st0" d="M255.4,78.5c-4.8,0-6.5,0.4-8.1,2.4h-0.2l1.4-3.6c0.5,0.1,1,0.2,1.1,0.2l1.5,0h15.3l-1,3.2h-0.2
				c-0.1-2-0.4-2.2-2.8-2.2h-4.6v13.4c0,2.3,0.3,3,2,3.7h-6.2c1.4-0.7,1.8-1.5,1.9-3.7V78.5z"/>
			<path class="st0" d="M304.2,86.4c0,5.4-4.4,9.4-10.2,9.4c-5.5,0-9.8-4-9.8-9.2c0-5.1,4.7-9.3,10.3-9.3S304.2,81.3,304.2,86.4z
				 M287.2,86.5c0,2.8,0.8,5,2.3,6.5c1.4,1.4,3.2,2.1,4.9,2.1c4.2,0,7.1-3.4,7.1-8.3c0-3-1-5.5-2.9-7.1c-1.3-1.1-2.9-1.8-4.5-1.8
				C290.2,78,287.2,81.7,287.2,86.5z"/>
			<path class="st0" d="M360.5,77.7l0.6,4.2L361,82c-0.4-0.7-1.1-1.5-1.9-2.2c-1.4-1.2-2.8-1.8-4.1-1.8c-2.1,0-3.8,1.4-3.8,3.1
				c0,0.7,0.4,1.5,0.9,1.9c0.9,0.7,1.5,1,4.6,1.9c2.1,0.6,3.4,1.2,4.2,2.1c1,0.9,1.5,2.1,1.5,3.3c0,3.2-3.1,5.7-7,5.7
				c-2.1,0-3.9-0.6-6.2-2l-0.3-3.4l0.2,0c1,1.7,1.6,2.5,2.5,3.2c1.1,1,2.5,1.4,4.2,1.4c2.7,0,4.7-1.6,4.7-3.9c0-1.1-0.6-2.1-1.6-2.9
				c-0.6-0.4-1.7-0.8-3.3-1.3c-3-0.9-4.2-1.5-5.3-2.5c-0.7-0.7-1.2-1.7-1.2-2.8c0-2.6,2.5-4.7,5.8-4.7c1.1,0,2.1,0.2,3.3,0.6
				c0.5,0.2,0.7,0.2,1,0.2c0.4,0,0.8-0.1,1.2-0.4H360.5z"/>
			<path class="st0" d="M389.2,85.9c3.6,0,4.2-0.3,4.9-2.2h0.2c0,1.2-0.1,2.1-0.1,2.6c0,0.6,0,1.4,0.1,2.5h-0.2
				c-0.8-1.9-1.7-2.3-4.9-2.4h-2.5v5.1c0,2.7,0.4,3.3,2.2,3.3c3.4,0,4.7-0.2,5.8-0.9c1-0.6,1.8-1.3,2.4-2.3h0.2l-1.2,3.9h-13.3
				c1.3-0.8,1.5-1.2,1.5-4.1V82c-0.1-2.7-0.5-3.6-2.2-4.4h13.4l0.5,3.8l-0.3,0.1c-1.3-2.4-2.7-2.9-6.9-2.8h-2.2v7.3H389.2z"/>
			<path class="st0" d="M434.5,91.8V81.5c-0.1-1.9-0.2-2.3-1.3-3.4c-0.5-0.4-0.6-0.5-1.1-0.6h5.6c-1.5,0.3-2.4,1.8-2.3,3.9v14.4
				h-0.8c-6.3-7.4-7.3-8.5-14-15.7v11c0.1,2.7,0.6,3.7,2.3,4.4h-5.2c1.9-1,2.2-1.6,2.2-4.5V79.3c-1.1-0.9-1.8-1.3-3-1.7h4.8
				L434.5,91.8z"/>
			<path class="st0" d="M464.3,85.9c3.6,0,4.2-0.3,4.9-2.2h0.2c0,1.2-0.1,2.1-0.1,2.6c0,0.6,0,1.4,0.1,2.5h-0.2
				c-0.8-1.9-1.7-2.3-4.9-2.4h-2.5v5.1c0,2.7,0.4,3.3,2.2,3.3c3.4,0,4.7-0.2,5.8-0.9c1-0.6,1.8-1.3,2.4-2.3h0.2l-1.2,3.9H458
				c1.3-0.8,1.5-1.2,1.5-4.1V82c-0.1-2.7-0.5-3.6-2.2-4.4h13.4l0.5,3.8l-0.3,0.1c-1.3-2.4-2.7-2.9-6.9-2.8h-2.2v7.3H464.3z"/>
			<path class="st0" d="M499.4,78.5c-4.8,0-6.5,0.4-8.1,2.4h-0.2l1.4-3.6c0.5,0.1,1,0.2,1.1,0.2l1.5,0h15.3l-1,3.2h-0.2
				c-0.1-2-0.4-2.2-2.8-2.2h-4.6v13.4c0,2.3,0.3,3,2,3.7h-6.2c1.4-0.7,1.8-1.5,1.9-3.7V78.5z"/>
			<path class="st0" d="M536,77.6c-1.8,1.1-2,1.3-1.9,4.3V92c0,2.4,0.2,2.8,1.7,3.7h-5.7c1.5-0.8,1.7-1.2,1.7-3.7V81.9
				c0-2.8-0.1-3.2-1.8-4.3H536z"/>
			<path class="st0" d="M573.8,91.8V81.5c-0.1-1.9-0.2-2.3-1.3-3.4c-0.5-0.4-0.6-0.5-1.1-0.6h5.6c-1.5,0.3-2.4,1.8-2.3,3.9v14.4
				h-0.8c-6.3-7.4-7.3-8.5-14-15.7v11c0.1,2.7,0.6,3.7,2.3,4.4H557c1.9-1,2.2-1.6,2.2-4.5V79.3c-1.1-0.9-1.8-1.3-3-1.7h4.8
				L573.8,91.8z"/>
			<path class="st0" d="M603.7,85.9c3.6,0,4.2-0.3,4.9-2.2h0.2c0,1.2-0.1,2.1-0.1,2.6c0,0.6,0,1.4,0.1,2.5h-0.2
				c-0.8-1.9-1.7-2.3-4.9-2.4h-2.5v5.1c0,2.7,0.4,3.3,2.2,3.3c3.4,0,4.7-0.2,5.8-0.9c1-0.6,1.8-1.3,2.4-2.3h0.2l-1.2,3.9h-13.3
				c1.3-0.8,1.5-1.2,1.5-4.1V82c-0.1-2.7-0.5-3.6-2.2-4.4h13.4l0.5,3.8l-0.3,0.1c-1.3-2.4-2.7-2.9-6.9-2.8h-2.2v7.3H603.7z"/>
			<path class="st0" d="M637.7,77.6c2.9,0,4.5,0.2,5.6,0.6c1.7,0.7,2.7,2.3,2.7,4.1c0,2.3-1.8,4.1-4.5,4.5l4.4,4.8
				c2,2.2,3.5,3.5,4.7,3.9c-0.5,0.1-0.9,0.1-1.4,0.1c-1.2,0-2.2-0.2-3-0.5c-0.6-0.3-1.1-0.7-2.2-2l-4.4-5c-0.6-0.7-1.2-1-1.9-0.9
				h-2.1V92c0,2.2,0.3,2.8,1.7,3.7h-6.1c1.7-1,1.9-1.4,2-3.7V80.6c-0.1-1.4-0.4-2-1.6-3.1H637.7z M637.8,86.7c3,0,3.6-0.1,4.6-0.8
				c0.9-0.7,1.4-1.8,1.4-3.1c0-1.6-0.6-2.8-1.8-3.5c-0.9-0.5-2.2-0.8-4.1-0.8c-0.4,0-1.4,0-2.2,0.1c-0.1,0.9-0.1,1.3-0.1,2v6.1
				H637.8z"/>
		</g>
	</g>
</g>
</svg>
